<?xml version="1.0" encoding="utf-8"?>
<!-- Generator: Adobe Illustrator 27.5.0, SVG Export Plug-In . SVG Version: 6.00 Build 0)  -->
<svg version="1.1" xmlns="http://www.w3.org/2000/svg" xmlns:xlink="http://www.w3.org/1999/xlink" x="0px" y="0px"
	 viewBox="0 0 500 500" style="enable-background:new 0 0 500 500;" xml:space="preserve">
<g id="Background_Simple">
	<g>
		<g>
			<path style="fill:#FFE6DE;" d="M446.945,416.882c-11.508,9.589-61.598,16.371-121.279,18.922
				c-91.739,3.931-206.158-2.121-237.971-23.291c-15.055-10.009-25.238-40.951-31.691-80.541
				C39.98,233.469,47.126,81.437,60.071,64.965c18.144-23.09,310.139-45.961,386.751-16.719
				C479.655,60.778,476.138,392.549,446.945,416.882z"/>
		</g>
		<g>
			<path style="fill:#FFFFFF;" d="M259.03,60.869c0,0-7.627-3.53-12.387,1.425c-4.76,4.955-6.823,13.463,1.742,18.051
				c8.565,4.588,13.443-1.482,14.325-3.096c0.882-1.613,7.235-14.432,7.235-14.432s1.549,6.135,6.537,7.608
				c0,0,2.823-4.751,2.765-5.515c0,0-6.039-6.111-4.449-11.627c0,0-4.018-2.822-5.016-2.001
				c-0.999,0.821-10.501,21.971-11.265,22.615c-0.764,0.645-3.467,3.107-7.603,1.401c-4.136-1.707-2.692-7.663-0.636-8.981
				c2.056-1.319,3.171-1.64,6.222-0.257C256.5,66.061,260.052,61.263,259.03,60.869z"/>
		</g>
		<g>
			<g>
				<path style="fill:#FFFFFF;" d="M114.914,114.634c-3.563-7.917-10.924-14.355-19.487-15.788
					c-8.563-1.432-17.619,1.983-23.646,8.232c-5.943,6.164-9.027,16.515-6.182,25.309l2.099,5.387l-0.034-0.079
					c4.918,7.027,11.215,15.101,27.433,13.787c8.958-0.726,17.708-7.253,21.445-17.952
					C118.593,127.659,117.829,121.113,114.914,114.634z"/>
			</g>
			<g>
				<g>
					<path style="fill:#FFE6DE;" d="M87.472,116.567c0,0,2.621,18.345,3.156,19.752c0.534,1.408,10.727-0.231,13.13-2.074
						c2.403-1.843,3.311-3.266,3.447-6.642c0.137-3.376-1.985-7.564-4.56-8.315c-2.575-0.751-6.92,0.219-6.92,0.219
						s-1.581-7.511-4.747-6.9C87.811,113.217,87.307,115.416,87.472,116.567z"/>
				</g>
				<g>
					<path style="fill:#FFE6DE;" d="M76.853,121.189c0,0,5.623-2.607,6.5-1.463c0.878,1.144,3.891,15.735,2.297,17.685
						c-0.552,0.676-3.186,1.062-4.269,1.288c-2.285,0.475-2.808-1.139-3.062-3.459C77.665,129.245,76.939,124.077,76.853,121.189z"
						/>
				</g>
			</g>
		</g>
		<g>
			<path style="fill:#FFFFFF;" d="M215.619,134.553c-0.979,0.326-34.7,11.312-32.461,14.192c2.413,3.105,8.761,4.198,9.461,3.915
				c2.908-1.177,15.497-10.277,15.497-10.277s-10.387,10.877-10.766,12.397c-0.565,2.266,13.213,11.255,15.497,9.298
				c2.284-1.958,5.057-28.057,4.567-28.709C216.924,134.716,215.619,134.553,215.619,134.553z"/>
		</g>
		<g>
			<g>
				<path style="fill:#FFFFFF;" d="M444.778,169.808c6.558-7.665,6.281-19.776-2.143-27.664
					c-10.844-10.155-23.238-3.891-23.238-3.891s-9.02-7.479-10.061-3.561c-1.041,3.918,2.695,10.984,2.695,10.984
					s-9.176,13.274,2.067,25.486C425.341,183.375,439.402,176.092,444.778,169.808z M416.823,167.984
					c-3.429-3.724-4.916-7.954-4.42-12.569c0.484-4.507,2.704-7.828,2.726-7.861l0.639-0.943c0.294-0.434,0.326-0.993,0.085-1.458
					l-0.529-1.018c-0.725-1.379-1.605-3.504-2.069-5.355c-0.062-0.248,0.212-0.451,0.431-0.319c1.164,0.703,2.517,1.653,3.691,2.624
					l0.723,0.598c0.576,0.476,1.378,0.566,2.044,0.23l0.839-0.423c0.392-0.192,10.063-4.805,18.62,3.209
					c3.941,3.69,5.888,8.73,5.34,13.827c-0.331,3.082-1.551,5.932-3.528,8.242c-2.711,3.169-7.887,6.41-13.342,6.51
					C423.911,173.353,420.126,171.572,416.823,167.984z"/>
			</g>
			<g>
				<path style="fill:#FFFFFF;" d="M422.179,166.612c-2.202-0.629-3.241-3.354-3.187-5.643c0.053-2.289,1.117-4.445,2.449-6.308
					c1.34-1.873,2.97-3.532,4.782-4.953c1.43-1.122,2.996-2.107,4.732-2.644c1.736-0.537,3.661-0.597,5.343,0.091
					c1.682,0.688,3.07,2.19,3.379,3.981c0,0,0.191,0.909-1.482,2.024c-1.673,1.115-5.588,1.885-5.836,0.823
					c-0.248-1.062-0.332-2.21-0.332-2.21s-6.745,3.987-7.521,6.389l-0.512,1.395c0,0,3.821,0.1,3.266,2.37
					C426.705,164.198,424.219,167.194,422.179,166.612z"/>
			</g>
		</g>
		<g>
			<g>
				<path style="fill:#FFFFFF;" d="M90.029,215.167c-1.626-2.592-28.102-8.152-30.108-6.894c-2.016,1.265-9.523,25.437-6.948,30.342
					c2.576,4.905,27.201,8.818,30.108,6.894C85.988,243.585,91.655,217.759,90.029,215.167z M81.026,242.439
					c-2.013,0.195-7.836-0.184-14.777-1.774c-0.001,0-0.002,0-0.003,0c-6.902-1.581-9.609-3.183-10.17-3.749
					c-0.232-0.798-0.353-4.61,1.889-13.285c1.461-5.656,3.076-10.064,3.968-11.994c2.261,0.145,7.328,0.912,13.731,2.378
					c5.989,1.371,9.615,2.556,11.157,3.233C86.872,222.208,83.122,238.599,81.026,242.439z"/>
			</g>
			<g>
				<path style="fill:#FFFFFF;" d="M73.101,219.166c-4.756-1.089-9.493,1.883-10.582,6.639c-1.089,4.756,2.115,9.079,6.87,10.168
					c4.756,1.089,9.262-1.469,10.351-6.225C80.828,224.993,77.856,220.255,73.101,219.166z M70.023,233.028
					c-3.091-0.708-5.173-3.518-4.465-6.609c0.708-3.091,3.787-5.022,6.878-4.315c3.091,0.708,5.022,3.787,4.315,6.878
					C76.043,232.073,73.114,233.735,70.023,233.028z"/>
			</g>
			<g>
				<path style="fill:#FFFFFF;" d="M83.883,220.882c-0.289,1.262-1.347,1.466-2.532,1.194c-1.185-0.271-2.049-0.915-1.76-2.177
					c0.289-1.262,1.484-2.065,2.67-1.794C83.445,218.377,84.172,219.62,83.883,220.882z"/>
			</g>
		</g>
		<g>
			<path style="fill:#FFFFFF;" d="M429.261,287.647c0,0-16.998,4.363-12.398,14.856c0,0,3.248,6.96,4.046,8.67
				c0,0-7.374,3.82-7.53,4.257c-0.546,1.534,2.141,7.774,3.476,7.449c1.335-0.326,8.059-3.761,8.059-3.761
				s7.424,19.733,9.109,19.839s8.596-3.565,8.141-4.542c-0.456-0.977-9.076-18.813-9.076-18.813s8.41-3.463,8.499-4.412
				c0.277-2.953-3.761-7.635-3.761-7.635l-8.075,3.939c0,0-3.875-6.073-2.776-8.816c1.099-2.743,6.984-3.556,6.585-4.709
				C433.161,292.817,430.995,287.284,429.261,287.647z"/>
		</g>
		<g>
			<g>
				<path style="fill:#FFFFFF;" d="M254.667,382.374c0,0-37.173,27.477-36.571,28.347c0.601,0.871,1.71,1.386,4.819,0.926
					c3.109-0.46,34.713-25.039,34.758-26.843C257.717,383.001,254.667,382.374,254.667,382.374z"/>
			</g>
			<g>
				<path style="fill:#FFFFFF;" d="M235.671,379.065c-1.865-0.51-11.357-2.874-11.068-2.128c0,0,14.621,37.845,17.629,39.48
					c3.008,1.635,11.068,2.128,11.068,2.128S237.536,379.575,235.671,379.065z M244.187,413.32
					c-2.072-1.002-14.446-31.904-14.332-32.499c0,0,3.054,0.39,4.017,0.878c0.963,0.487,15.12,32.546,15.12,32.546
					S246.26,414.323,244.187,413.32z"/>
			</g>
		</g>
		<g>
			<g>
				<path style="fill:#FFFFFF;" d="M411.244,380.493c-0.801-1.476-8.652-9.326-10.805-9.667c-2.153-0.341-7.759,1.613-8.163,1.889
					c-0.404,0.276,0.022,1.765,0.022,1.765l-8.752,3.374c0,0-0.693-1.803-1.51-1.339c-1.052,0.598-2.881,1.449-5.89,3.578
					c-3.009,2.129-3.773,14.063-2.702,17.971c1.07,3.908,1.934,7.26,3.222,8.682c1.287,1.422,11.172,3.832,12.375,1.613
					c1.203-2.219,1.271-5.79,1.271-5.79s9.034-0.566,13.34-4.317c0,0,1.891,3.73,4.117,2.904c2.226-0.826,8.724-7.543,8.591-9.266
					C416.227,390.167,412.045,381.969,411.244,380.493z M388.245,396.453c-1.789,0.664-3.81-0.339-4.515-2.239
					c-0.705-1.9,0.173-3.978,1.962-4.642c1.788-0.664,3.81,0.339,4.515,2.239C390.912,393.711,390.034,395.79,388.245,396.453z
					 M400.784,391.801c-1.788,0.664-3.81-0.339-4.515-2.239c-0.705-1.9,0.173-3.978,1.962-4.642c1.789-0.664,3.81,0.339,4.515,2.239
					C403.451,389.059,402.572,391.137,400.784,391.801z"/>
			</g>
			<g>
				<g>
					<path style="fill:#FFE6DE;" d="M386.383,403.12c7.751,1.248,15.891-1.806,20.809-7.955c0.498-0.622-0.381-1.512-0.884-0.884
						c-4.623,5.779-12.265,8.813-19.593,7.633C385.929,401.788,385.59,402.992,386.383,403.12L386.383,403.12z"/>
				</g>
			</g>
		</g>
		<g>
			<path style="fill:#FFFFFF;" d="M113.036,68.72l2.547-7.757l2.893,7.757c0,0,5.78,0.983,5.847,1.522
				c0.066,0.527-5.532,2.177-5.532,2.177s-2.349,7.521-3.208,5.818c-0.859-1.703-1.692-5.474-1.692-5.474s-7.278-1.512-7.278-2.254
				C106.614,69.705,113.036,68.72,113.036,68.72z"/>
		</g>
		<g>
			<path style="fill:#FFFFFF;" d="M414.733,356.427l2.547-7.757l2.893,7.757c0,0,5.78,0.983,5.847,1.522
				c0.066,0.527-5.532,2.177-5.532,2.177s-2.349,7.521-3.208,5.818c-0.859-1.703-1.692-5.474-1.692-5.474s-7.278-1.512-7.278-2.254
				C408.311,357.412,414.733,356.427,414.733,356.427z"/>
		</g>
		<g>
			<path style="fill:#FFFFFF;" d="M77.154,185.981l1.661-5.059l1.887,5.059c0,0,3.769,0.641,3.813,0.993
				c0.043,0.344-3.607,1.42-3.607,1.42s-1.532,4.905-2.092,3.794c-0.56-1.111-1.103-3.57-1.103-3.57s-4.746-0.986-4.746-1.47
				C72.966,186.623,77.154,185.981,77.154,185.981z"/>
		</g>
		<g>
			<path style="fill:#FFFFFF;" d="M198.674,81.373l1.661-5.059l1.887,5.059c0,0,3.769,0.641,3.813,0.992
				c0.043,0.344-3.607,1.42-3.607,1.42s-1.532,4.905-2.092,3.794c-0.56-1.111-1.103-3.57-1.103-3.57s-4.746-0.986-4.746-1.47
				C194.486,82.015,198.674,81.373,198.674,81.373z"/>
		</g>
		<g>
			<path style="fill:#FFFFFF;" d="M336.902,55.521l1.661-5.059l1.887,5.059c0,0,3.769,0.641,3.813,0.993
				c0.043,0.344-3.607,1.42-3.607,1.42s-1.532,4.905-2.092,3.794c-0.56-1.111-1.103-3.57-1.103-3.57s-4.746-0.986-4.746-1.47
				C332.714,56.163,336.902,55.521,336.902,55.521z"/>
		</g>
		<g>
			<path style="fill:#FFFFFF;" d="M344.879,415.313l1.661-5.059l1.887,5.059c0,0,3.769,0.641,3.813,0.993
				c0.043,0.344-3.607,1.42-3.607,1.42s-1.532,4.905-2.092,3.794c-0.56-1.111-1.103-3.57-1.103-3.57s-4.746-0.986-4.746-1.47
				C340.69,415.956,344.879,415.313,344.879,415.313z"/>
		</g>
		<g>
			<path style="fill:#FFFFFF;" d="M431.646,84.444l1.661-5.058l1.886,5.058c0,0,3.769,0.641,3.813,0.993
				c0.043,0.344-3.607,1.42-3.607,1.42s-1.532,4.905-2.092,3.794c-0.56-1.111-1.103-3.57-1.103-3.57s-4.746-0.986-4.746-1.47
				C427.457,85.087,431.646,84.444,431.646,84.444z"/>
		</g>
	</g>
</g>
<g id="Speech_Bubble">
	<g>
		<g>
			<g>
				<path style="fill:#8380FF;" d="M159.59,66.918c-6.854-0.39-13.569,2.412-19.558,7.478c-7.318,6.19-11.911,15.961-10.826,25.485
					c1.086,9.523,7.465,18.095,15.931,22.589c8.349,4.432,20.273,4.555,28.74-1.14c0,0,10.069,6.577,11.627,4.43
					c1.053-0.854-2.917-8.7-5.019-11.374l-0.073,0.06c5.961-7.357,9.899-17.984,4.754-30.231
					C181.324,75.067,172.082,67.629,159.59,66.918z"/>
			</g>
		</g>
		<g>
			<g>
				<path style="fill:#A0D2F4;" d="M148.868,98.189c-0.208,3.54-3.401,5.735-6.941,5.526c-3.54-0.208-5.518-2.708-5.31-6.248
					c0.208-3.54,2.678-6.274,6.218-6.066C146.376,91.61,149.077,94.649,148.868,98.189z"/>
			</g>
			<g>
				<path style="fill:#A0D2F4;" d="M164.256,97.319c-0.208,3.54-3.4,5.735-6.941,5.526c-3.54-0.208-5.518-2.708-5.31-6.248
					c0.208-3.54,2.678-6.274,6.218-6.066C161.764,90.74,164.465,93.779,164.256,97.319z"/>
			</g>
			<g>
				<path style="fill:#A0D2F4;" d="M179.465,96.578c-0.208,3.54-3.4,5.735-6.94,5.526c-3.54-0.208-5.518-2.708-5.31-6.248
					c0.208-3.54,2.678-6.274,6.218-6.066C176.973,89.999,179.674,93.038,179.465,96.578z"/>
			</g>
		</g>
	</g>
</g>
<g id="Megaphone">
	<g>
		<g>
			<g>
				<g>
					<g>
						<path style="fill:#421B36;" d="M336.948,105.182c-0.341,0.536-4.956,7.109-0.348,17.599c0,0,3.905,9.983,13.245,8.899
							l19.189-8.053l-11.262-28.971c0,0-1.001-0.591-2.968,0.596C352.837,96.44,337.96,103.587,336.948,105.182z"/>
					</g>
				</g>
				<g>
					<g>
						<path style="fill:#A0D2F4;" d="M351.281,96.998c-1.16,0.983-2.061,2.238-2.577,3.669c-0.999,2.767-1.728,7.565,1.046,14.046
							c4.182,9.773,10.432,11.964,15.345,9.705c6.044-2.779,36.877,0.924,37.105,0.598c0.99-1.422-18.645-58.891-22.571-57.136
							C375.893,69.549,359.386,90.127,351.281,96.998z"/>
					</g>
				</g>
				<g>
					<g>
						<path style="fill:#8380FF;" d="M405.272,91.502c6.308,16.601,4.701,32.612-3.589,35.762
							c-8.29,3.15-20.123-7.755-26.431-24.355c-6.308-16.601-4.701-32.612,3.589-35.762
							C387.131,63.997,398.965,74.901,405.272,91.502z"/>
					</g>
				</g>
				<g>
					<g>
						<path style="fill:#8380FF;" d="M406.251,118.209c0,0,0,0,0,0.001c-0.968,2.991-2.601,5.109-4.873,5.972
							c-6.948,2.64-17.233-7.47-22.974-22.579c-5.74-15.11-4.763-29.499,2.183-32.138c3.324-1.263,7.414,0.393,11.403,4.12
							c0.003,0.003,0.007,0.005,0.008,0.008c0.002,0.002,0.002,0.004,0.004,0.005c4.344,4.062,8.567,10.576,11.558,18.447
							C407.425,102.213,408.246,112.055,406.251,118.209z"/>
					</g>
				</g>
				<g>
					<g>
						<path style="fill:#A0D2F4;" d="M376.18,94.399c0,0,10.305-3.21,11.284-2.748c0.979,0.462,5.959,10.991,4.891,11.974
							c-1.068,0.983-10.388,5.714-10.388,5.714S376.707,100.332,376.18,94.399z"/>
					</g>
				</g>
				<g>
					<g>
						<path style="fill:#421B36;" d="M392.186,96.584c1.453,3.289,1.499,6.455,0.103,7.071c-1.396,0.617-3.705-1.549-5.158-4.838
							c-1.453-3.289-1.499-6.455-0.103-7.071C388.424,91.13,390.733,93.296,392.186,96.584z"/>
					</g>
				</g>
				<g>
					<g>
						<path style="fill:#A0D2F4;" d="M352.422,130.754c0,0,9.737,17.359,13.387,18.961c3.65,1.603,11.187-5.239,11.187-5.239
							l-14.481-17.748C362.514,126.728,351.745,129.567,352.422,130.754z"/>
					</g>
				</g>
				<g>
					<g>
						<g>
							<path style="fill:#421B36;" d="M405.855,118.318c0.007,0.035-0.389,0.728-0.449,0.859c-0.119,0.261-0.246,0.52-0.382,0.773
								c-0.241,0.448-0.508,0.888-0.827,1.286c-0.487,0.607-1.085,1.087-1.771,1.451c-1.209,0.641-2.553,1.097-3.931,1.079
								c-3.124-0.042-5.988-2.006-8.214-4.028c-3.243-2.946-5.79-6.625-7.893-10.446c-2.661-4.836-4.671-10.063-5.948-15.432
								c-1.117-4.694-1.738-9.641-1.155-14.458c0.387-3.203,1.404-7.067,4.277-8.951c4.113-2.696,9.105,0.587,12.137,3.426
								c3.287,3.077,5.89,6.853,8.034,10.792c2.73,5.017,4.764,10.445,5.998,16.022c1.048,4.739,1.609,9.795,0.795,14.617
								c-0.16,0.946-0.381,1.878-0.672,2.792c-0.16,0.505,0.633,0.721,0.792,0.218c1.452-4.57,1.249-9.588,0.543-14.272
								c-0.901-5.978-2.819-11.82-5.447-17.257c-2.23-4.614-5.041-9.072-8.667-12.721c-3.05-3.068-7.795-6.647-12.402-5.07
								c-3.197,1.095-4.882,4.327-5.668,7.411c-1.182,4.633-0.861,9.612-0.056,14.278c1.01,5.847,2.964,11.551,5.601,16.86
								c2.147,4.324,4.82,8.511,8.261,11.926c2.359,2.34,5.322,4.591,8.713,5.038c2.983,0.394,6.277-0.998,7.879-3.574
								c0.291-0.468,0.54-0.963,0.766-1.466c0.172-0.384,0.561-0.953,0.477-1.373C406.544,117.582,405.751,117.801,405.855,118.318z
								"/>
						</g>
					</g>
				</g>
			</g>
			<g>
				<g>
					<g>
						<path style="fill:#421B36;" d="M390.457,124.211c-10.643-9.296-17.974-22.928-19.032-37.108
							c-0.332-4.454,0.092-9.01,1.915-13.127c0.212-0.479-0.496-0.898-0.709-0.415c-3.185,7.192-2.379,15.464-0.401,22.875
							c1.864,6.98,5.075,13.607,9.383,19.405c2.429,3.27,5.195,6.272,8.263,8.952C390.273,125.138,390.857,124.56,390.457,124.211
							L390.457,124.211z"/>
					</g>
				</g>
			</g>
			<g>
				<g>
					<g>
						<path style="fill:#421B36;" d="M367.573,123.534c-4.514-2.66-8.2-6.61-10.505-11.321c-2.629-5.372-3.31-11.593-2.032-17.423
							c0.113-0.515-0.679-0.736-0.792-0.218c-1.986,9.058,0.719,18.654,7.243,25.263c1.689,1.711,3.601,3.189,5.672,4.409
							C367.615,124.512,368.029,123.802,367.573,123.534L367.573,123.534z"/>
					</g>
				</g>
			</g>
		</g>
	</g>
</g>
<g id="Tab_2">
	<g>
		<g>
			<g>
				<path style="fill:#FFFFFF;" d="M340.405,301.563c0,0-8.235,48.974-6.927,50.692c1.308,1.718,52.088,9.698,54.133,8.283
					c2.045-1.415,8.53-49.296,8.409-51.142C395.893,307.467,340.796,300.218,340.405,301.563z"/>
			</g>
			<g>
				<g>
					<path style="fill:#421B36;" d="M339.802,301.397c-1.016,6.042-1.99,12.09-2.94,18.143c-1.444,9.201-2.961,18.428-3.886,27.699
						c-0.126,1.266-0.261,2.544-0.264,3.818c-0.001,0.646-0.036,1.364,0.514,1.798c0.539,0.426,1.434,0.575,2.078,0.748
						c1.397,0.375,2.814,0.677,4.23,0.971c9.425,1.957,18.968,3.427,28.497,4.778c4.38,0.621,8.768,1.214,13.17,1.646
						c1.435,0.141,2.874,0.274,4.316,0.32c0.684,0.022,1.62,0.134,2.262-0.17c0.626-0.297,0.831-1.089,1.028-1.697
						c0.415-1.284,0.695-2.616,0.975-3.935c0.906-4.271,1.617-8.584,2.311-12.894c1.511-9.388,2.871-18.808,4.035-28.246
						c0.156-1.267,0.313-2.535,0.437-3.806c0.054-0.553,0.241-1.267-0.161-1.725c-0.419-0.479-1.318-0.642-1.895-0.805
						c-1.261-0.355-2.549-0.618-3.833-0.875c-8.985-1.798-18.107-3.005-27.191-4.179c-4.583-0.592-9.171-1.149-13.769-1.615
						c-2.753-0.279-5.576-0.663-8.349-0.596C340.776,300.789,340.067,300.767,339.802,301.397c-0.311,0.74,0.898,1.064,1.205,0.332
						c-0.173,0.412-0.355,0.24-0.224,0.331c0.013,0.009,0.07-0.011,0.256-0.025c0.371-0.026,0.746-0.014,1.117-0.005
						c1.244,0.031,2.488,0.13,3.728,0.232c3.919,0.325,7.829,0.771,11.733,1.24c9.329,1.119,18.652,2.386,27.912,3.981
						c2.918,0.503,5.887,0.97,8.738,1.787c0.329,0.094,0.786,0.249,1.029,0.339c0.584,0.216-0.143-0.018,0.1-0.194
						c-0.174,0.126-0.145,1.757-0.169,1.982c-0.899,8.263-2.128,16.5-3.376,24.716c-0.71,4.676-1.451,9.349-2.293,14.003
						c-0.547,3.024-1.014,6.162-1.985,9.087c-0.116,0.35-0.231,0.518-0.346,0.836c-0.049,0.136,0.077-0.047,0.023-0.016
						c0.186-0.105-0.144,0.016-0.123,0.015c-0.762,0.014-1.807,0.029-2.675-0.023c-3.616-0.217-7.221-0.685-10.811-1.151
						c-9.597-1.246-19.175-2.743-28.691-4.505c-3.165-0.586-6.361-1.152-9.468-2.004c-0.408-0.112-0.826-0.22-1.22-0.378
						c-0.146-0.058-0.46-0.317-0.258-0.058c0.086,0.111-0.041,0.016-0.017-0.114c-0.023,0.124-0.018-0.257-0.021-0.359
						c-0.012-0.439,0.004-0.878,0.026-1.316c0.412-8.134,1.93-16.289,3.157-24.327c1.16-7.599,2.379-15.189,3.641-22.772
						c0.072-0.434,0.145-0.868,0.218-1.303C341.14,300.943,339.935,300.604,339.802,301.397z"/>
				</g>
			</g>
		</g>
		<g>
			<path style="fill:#421B36;" d="M339.338,306.647c0.221,0.025,55.666,10.795,56.272,8.312c0.607-2.483,0.41-5.562,0.41-5.562
				c-0.026-1.224-55.27-11.503-55.615-7.833C340.163,304.129,339.338,306.647,339.338,306.647z"/>
		</g>
		<g>
			<g>
				<path style="fill:#A0D2F4;" d="M356.066,333.04c-0.784,3.222-4.088,4.707-7.31,3.922c-3.222-0.784-4.624-3.414-3.839-6.636
					c0.784-3.222,3.514-5.324,6.735-4.54C354.874,326.571,356.85,329.819,356.066,333.04z"/>
			</g>
			<g>
				<path style="fill:#A0D2F4;" d="M370.367,334.815c-0.784,3.222-4.088,4.707-7.31,3.922c-3.222-0.784-4.624-3.414-3.839-6.636
					c0.784-3.222,3.514-5.324,6.735-4.54C369.176,328.346,371.152,331.593,370.367,334.815z"/>
			</g>
			<g>
				<path style="fill:#A0D2F4;" d="M384.483,336.678c-0.784,3.222-4.088,4.707-7.31,3.922c-3.222-0.784-4.624-3.414-3.839-6.636
					c0.784-3.222,3.514-5.324,6.735-4.54C383.291,330.209,385.267,333.457,384.483,336.678z"/>
			</g>
		</g>
	</g>
</g>
<g id="Device">
	<g>
		<g>
			<path style="fill:#421B36;" d="M346.94,112.752c-0.156-25.55-15.292-29.892-30.967-31.01c-6.613-0.472-27.762-0.44-41.671-0.361
				c-13.908-0.214-35.055-0.45-41.672-0.042c-15.685,0.966-33.794,6.187-34.197,31.734c0,0-0.346,200.85,2.228,212.057
				c2.574,11.207,9.306,16.663,27.328,17.112c8.134,0.203,20.86,0.133,32.305,0.061c-0.002,0.017-0.005,0.036-0.007,0.048
				c0.032-0.018,0.093-0.035,0.187-0.05c4.515-0.028,8.822-0.056,12.566-0.068c3.744,0.048,8.051,0.118,12.565,0.19
				c0.094,0.016,0.155,0.033,0.187,0.051c-0.002-0.012-0.004-0.031-0.007-0.048c11.445,0.182,24.169,0.375,32.305,0.251
				c18.025-0.274,24.81-5.665,27.492-16.846C348.266,314.648,346.94,112.752,346.94,112.752z"/>
		</g>
		<g>
			<path style="fill:#FFFFFF;" d="M308.711,329.534c-6.819-0.033-14.669-0.149-22.784-0.276l-7.433-0.116l-5.443-0.073
				c-1.563,0.004-3.222,0.011-4.955,0.02l-7.815,0.045c-8.117,0.048-15.968,0.088-22.786,0.055
				c-3.758-0.018-6.801-0.056-9.305-0.117c-16.995-0.413-19.507-5.347-21.025-11.754c-1.772-8.217-2.192-134.024-2.098-204.993
				c0.259-16.079,8.629-23.469,27.988-24.624c1.952-0.117,6.689-0.244,18.163-0.188c6.434,0.031,14.166,0.114,22.981,0.247
				l0.144,0.001c8.816-0.047,16.548-0.056,22.982-0.025c11.474,0.055,16.209,0.228,18.16,0.364
				c16.009,1.111,24.707,5.257,24.827,23.957c0.548,68.529,0.656,197.579-1.165,205.923c-1.574,6.369-4.133,11.278-21.131,11.527
				C315.513,329.544,312.468,329.553,308.711,329.534z"/>
		</g>
		<g>
			<g>
				<path style="fill:#421B36;" d="M254.274,94.56c-1.626-0.001-3.162,0.921-3.766,2.431c-0.22,0.55-0.316,1.164-0.158,1.809
					c0.568,2.321,1.534,2.519,5.785,2.347c3.694-0.15,31.092,0.023,38.388,0.104c1.662,0.019,3.895-0.778,4.525-2.316
					c0.242-0.591,0.353-1.272,0.195-2.024c-0.567-2.708-4.728-1.955-6.273-2.156C291.619,94.579,262.185,94.564,254.274,94.56z"/>
			</g>
		</g>
		<g>
			<g>
				<path style="fill:#421B36;" d="M328.477,109.166c0,1.51-1.224,2.301-2.733,2.301c-1.51,0-2.733-0.791-2.733-2.301
					c0-1.51,1.224-2.733,2.733-2.733C327.254,106.432,328.477,107.656,328.477,109.166z"/>
			</g>
			<g>
				<path style="fill:#421B36;" d="M328.477,115.608c0,1.51-1.224,2.301-2.733,2.301c-1.51,0-2.733-0.791-2.733-2.301
					c0-1.51,1.224-2.733,2.733-2.733C327.254,112.875,328.477,114.099,328.477,115.608z"/>
			</g>
			<g>
				<path style="fill:#421B36;" d="M328.477,122.051c0,1.51-1.224,2.301-2.733,2.301c-1.51,0-2.733-0.791-2.733-2.301
					s1.224-2.733,2.733-2.733C327.254,119.318,328.477,120.542,328.477,122.051z"/>
			</g>
		</g>
		<g>
			<g>
				<path style="fill:#421B36;" d="M221.125,106.952c-2.224,1.753-4.344,3.632-6.36,5.621c-0.311,0.307-0.19,0.748,0.126,0.982
					c2.157,1.593,4.379,3.095,6.666,4.496c0.688,0.421,1.316-0.659,0.631-1.079c-2.287-1.401-4.509-2.903-6.666-4.496
					c0.042,0.327,0.084,0.654,0.126,0.982c2.016-1.989,4.136-3.868,6.36-5.621C222.64,107.339,221.75,106.46,221.125,106.952
					L221.125,106.952z"/>
			</g>
		</g>
		<g>
			<g>
				<path style="fill:#8380FF;" d="M243.02,218.555c0,8.601-6.972,13.824-15.573,13.824c-8.601,0-15.573-5.223-15.573-13.824
					c0-8.601,6.972-15.573,15.573-15.573C236.048,202.982,243.02,209.954,243.02,218.555z"/>
			</g>
			<g>
				<path style="fill:#FFFFFF;" d="M220.751,225.252c0,0-0.319-6.712,6.459-7.305c7.269-0.636,7.94,5.661,7.94,5.661
					C235.363,225.483,220.87,227.343,220.751,225.252z"/>
			</g>
			<g>
				<path style="fill:#FFFFFF;" d="M231.749,213.076c0.08,2.741-2.109,3.972-4.85,4.051c-2.741,0.08-4.997-1.022-5.076-3.763
					c-0.08-2.741,2.078-5.027,4.819-5.107C229.383,208.178,231.669,210.335,231.749,213.076z"/>
			</g>
			<g>
				<g>
					<path style="fill:#421B36;" d="M249.251,208.88c8.514,0,17.029,0,25.543,0c0.804,0,0.806-1.25,0-1.25
						c-8.514,0-17.029,0-25.543,0C248.446,207.63,248.445,208.88,249.251,208.88L249.251,208.88z"/>
				</g>
			</g>
			<g>
				<path style="fill:#A0D2F4;" d="M250.223,215.15c0,0-1.903,4.9,0.193,6.043c2.095,1.143,70.38,1.214,70.814-0.322
					s1.418-5.419,0.128-5.653C320.067,214.985,251.7,214.622,250.223,215.15z"/>
			</g>
		</g>
		<g>
			<g>
				<g>
					<g>
						<g>
							<g>
								<path style="fill:#A0D2F4;" d="M306.755,125.681c-17.372-4.807-68.973-5.643-71.365,1.916
									c-2.41,7.615-3.955,57.983,0.744,64.878c4.699,6.895,70.881,6.185,74.534,0.556
									C314.32,187.402,313.037,127.419,306.755,125.681z"/>
							</g>
						</g>
					</g>
					<g>
						<g>
							<path style="fill:#FFFFFF;" d="M314.382,185.839c1.194-12.796,0.706-25.959-0.334-38.751
								c-0.43-5.291,0.023-20.664-6.399-23.427c-0.156-0.067-0.297-0.062-0.446-0.095c-0.051-0.017-0.083-0.052-0.137-0.066
								c-12.313-3.232-25.638-3.62-38.31-3.689c-9.452-0.051-24.341-1.337-32.725,4.058c-5.871,3.778-4.493,15.711-4.777,21.583
								c-0.607,12.546-0.943,25.377,0.443,37.89c0.786,7.091,1.63,11.777,9.162,13.717c10.122,2.607,21.225,2.534,31.608,2.575
								c11.079,0.043,22.973,0.187,33.806-2.395C313.037,195.628,313.782,192.269,314.382,185.839z M305.725,192.866
								c-8.661,2.327-18.515,2.199-27.424,2.353c-10.166,0.176-20.493,0.025-30.581-1.371c-2.531-0.35-7.159-0.481-9.188-2.223
								c-1.893-1.625-1.924-5.314-2.213-7.601c-1.39-10.972-1.161-22.246-0.783-33.266c0.15-4.369,0.362-8.741,0.729-13.098
								c0.189-2.245-0.149-7.595,1.377-9.517c2.051-2.584,8.814-2.737,11.778-3.083c6.983-0.813,14.077-0.954,21.105-0.865
								c11.711,0.148,23.984,0.631,35.387,3.541c3.502,1.669,3.525,18.092,3.768,21.337c0.754,10.087,1.026,20.262,0.592,30.366
								C310.053,184.537,311.256,191.38,305.725,192.866z"/>
						</g>
					</g>
				</g>
				<g>
					<g>
						<g>
							<path style="fill:#421B36;" d="M315.007,185.839c1.167-12.733,0.721-25.544-0.295-38.271
								c-0.535-6.701-0.02-14.009-2.927-20.254c-0.613-1.318-1.446-2.573-2.61-3.466c-1.645-1.262-4.011-1.489-5.981-1.905
								c-5.831-1.231-11.772-1.904-17.716-2.281c-5.921-0.376-11.846-0.409-17.776-0.486c-4.615-0.06-9.229-0.258-13.845-0.09
								c-4.579,0.167-9.274,0.607-13.63,2.111c-3.632,1.254-6.595,3.086-8.032,6.779c-1.447,3.719-1.51,7.92-1.523,11.857
								c-0.016,4.789-0.247,9.557-0.4,14.344c-0.205,6.413-0.255,12.835,0.04,19.245c0.236,5.141,0.421,10.539,1.627,15.568
								c0.801,3.34,2.598,6.11,5.769,7.611c2.323,1.099,4.934,1.577,7.445,2.035c2.779,0.507,5.588,0.85,8.402,1.086
								c6.14,0.515,12.306,0.514,18.463,0.536c5.97,0.022,11.946,0.078,17.91-0.235c5.741-0.301,11.653-0.83,17.215-2.36
								c3.422-0.942,6.028-2.861,7.024-6.365C314.669,189.528,314.834,187.664,315.007,185.839c0.076-0.8-1.175-0.795-1.25,0
								c-0.308,3.255-0.565,7.16-3.546,9.164c-1.858,1.249-4.157,1.683-6.313,2.12c-2.787,0.566-5.605,0.961-8.435,1.239
								c-5.678,0.557-11.389,0.658-17.091,0.663c-5.641,0.005-11.289,0.023-16.928-0.135c-5.797-0.163-11.616-0.562-17.308-1.72
								c-3.927-0.799-8.088-1.805-10.02-5.686c-1.839-3.695-1.884-8.467-2.206-12.484c-0.48-5.987-0.606-11.999-0.54-18.003
								c0.062-5.576,0.448-11.14,0.546-16.712c0.065-3.68-0.118-7.37,0.327-11.034c0.446-3.672,1.508-7.394,4.909-9.327
								c3.805-2.163,8.313-2.947,12.619-3.336c4.493-0.406,9.013-0.348,13.519-0.25c4.905,0.107,9.812,0.1,14.717,0.24
								c5.86,0.168,11.725,0.518,17.537,1.31c2.758,0.376,5.503,0.853,8.22,1.457c1.891,0.42,3.931,0.64,5.323,2.098
								c2.244,2.35,2.932,6.06,3.406,9.15c0.517,3.374,0.647,6.79,0.8,10.194c0.216,4.797,0.692,9.58,0.909,14.38
								c0.27,5.991,0.348,11.994,0.119,17.988c-0.111,2.9-0.299,5.795-0.564,8.685C313.683,186.64,314.934,186.635,315.007,185.839z
								"/>
						</g>
					</g>
				</g>
			</g>
			<g>
				<path style="fill:#8380FF;" d="M263.768,143.83c-2.702-0.907-3.099,1.277-3.123,4.062c-0.087,10.099,0.258,31.158,4.64,31.436
					c5.768,0.366,26.023-15.067,24.237-20.784C287.925,153.428,269.751,145.838,263.768,143.83z"/>
			</g>
		</g>
		<g>
			<g>
				<g>
					<g>
						<g>
							<path style="fill:#A0D2F4;" d="M304.91,242.75c-17.284-4.78-68.566-5.283-70.909,2.434
								c-2.36,7.774-3.669,59.097,1.032,66.089c4.7,6.993,70.464,5.822,74.069,0.063C312.706,305.577,311.16,244.478,304.91,242.75z
								"/>
						</g>
					</g>
				</g>
				<g>
					<g>
						<g>
							<path style="fill:#8380FF;" d="M300.793,263.822c-2.809,6.595-10.432,9.665-17.028,6.856
								c-6.595-2.809-9.665-10.432-6.856-17.028c2.809-6.595,10.432-9.665,17.028-6.856
								C300.532,249.603,303.602,257.226,300.793,263.822z"/>
						</g>
					</g>
				</g>
				<g>
					<g>
						<g>
							<path style="fill:#8380FF;" d="M309.102,311.336c1.526-2.439,2.129-14.804,1.842-28.38
								c-7.707-5.545-18.493-6.869-27.124-2.767c-3.263,1.551-6.711,3.842-10.177,2.823c-2.672-0.786-4.375-3.301-6.199-5.406
								c-4.988-5.754-12.42-9.316-20.029-9.6c-5.404-0.202-10.838,1.259-15.472,4.042c-0.324,16.603,0.393,35.213,3.09,39.226
								C239.733,318.266,305.497,317.095,309.102,311.336z"/>
						</g>
					</g>
				</g>
				<g>
					<g>
						<path style="fill:#FFFFFF;" d="M312.76,303.984c1.129-13.044,0.584-26.451-0.507-39.475
							c-0.451-5.388-0.07-21.052-6.464-23.823c-0.155-0.067-0.295-0.061-0.444-0.094c-0.051-0.017-0.083-0.052-0.137-0.066
							c-12.251-3.21-25.494-3.515-38.086-3.5c-9.392,0.012-24.194-1.198-32.501,4.356c-5.817,3.888-4.394,16.036-4.649,22.02
							c-0.546,12.785-0.823,25.859,0.611,38.597c0.813,7.218,1.673,11.987,9.167,13.912c10.07,2.588,21.103,2.438,31.421,2.409
							c11.01-0.031,22.83,0.036,33.583-2.668C311.468,313.965,312.193,310.538,312.76,303.984z M304.189,311.201
							c-8.597,2.429-18.389,2.365-27.242,2.582c-10.101,0.248-20.365,0.164-30.395-1.19c-2.516-0.34-7.116-0.441-9.141-2.203
							c-1.888-1.642-1.936-5.401-2.234-7.728c-1.43-11.168-1.254-22.655-0.928-33.884c0.129-4.452,0.321-8.907,0.665-13.348
							c0.177-2.288-0.182-7.736,1.325-9.705c2.027-2.646,8.746-2.848,11.69-3.22c6.936-0.876,13.985-1.067,20.969-1.024
							c11.639,0.072,23.837,0.48,35.181,3.368c3.487,1.677,3.585,18.408,3.841,21.712c0.795,10.271,1.111,20.635,0.726,30.931
							C308.452,302.687,309.679,309.65,304.189,311.201z"/>
					</g>
				</g>
			</g>
			<g>
				<g>
					<g>
						<path style="fill:#421B36;" d="M313.385,303.984c1.089-12.817,0.616-25.706-0.427-38.509
							c-0.556-6.825-0.107-14.194-2.835-20.623c-0.585-1.379-1.366-2.735-2.509-3.729c-1.391-1.209-3.193-1.463-4.944-1.859
							c-5.996-1.355-12.126-2.068-18.255-2.45c-5.959-0.371-11.924-0.392-17.892-0.413c-4.605-0.017-9.209-0.2-13.813-0.017
							c-4.664,0.185-9.46,0.65-13.88,2.24c-3.635,1.308-6.562,3.185-7.979,6.899c-1.43,3.746-1.485,7.972-1.487,11.929
							c-0.002,4.754-0.182,9.486-0.316,14.239c-0.184,6.532-0.22,13.073,0.081,19.603c0.243,5.27,0.489,10.716,1.59,15.892
							c0.724,3.402,2.322,6.402,5.494,8.068c2.15,1.129,4.601,1.609,6.964,2.066c2.946,0.569,5.931,0.941,8.92,1.185
							c6.041,0.493,12.107,0.464,18.163,0.445c6.167-0.019,12.341,0.008,18.5-0.376c5.713-0.356,11.677-0.91,17.173-2.598
							c3.293-1.012,5.694-3.003,6.629-6.384C313.064,307.771,313.22,305.857,313.385,303.984c0.07-0.801-1.18-0.796-1.25,0
							c-0.283,3.227-0.486,7.158-3.329,9.266c-1.733,1.285-3.93,1.762-5.994,2.22c-2.873,0.637-5.786,1.086-8.711,1.403
							c-5.714,0.619-11.468,0.759-17.211,0.801c-5.688,0.041-11.384,0.103-17.07-0.034c-5.844-0.141-11.711-0.542-17.441-1.756
							c-4.004-0.848-7.904-2.081-9.602-6.151c-0.656-1.572-0.971-3.28-1.219-4.957c-0.398-2.689-0.643-5.406-0.852-8.115
							c-0.463-6.025-0.592-12.071-0.539-18.112c0.048-5.527,0.416-11.048,0.464-16.572c0.033-3.721-0.15-7.452,0.289-11.158
							c0.434-3.666,1.462-7.419,4.823-9.403c3.8-2.243,8.339-3.08,12.676-3.499c4.503-0.435,9.036-0.397,13.555-0.326
							c4.974,0.079,9.95,0.031,14.924,0.155c5.894,0.147,11.797,0.489,17.638,1.31c2.924,0.411,5.833,0.941,8.707,1.623
							c1.743,0.414,3.14,0.739,4.304,2.174c2.067,2.548,2.708,6.212,3.165,9.366c0.485,3.349,0.619,6.733,0.784,10.109
							c0.242,4.943,0.742,9.871,0.976,14.817c0.285,6.027,0.381,12.066,0.179,18.098c-0.098,2.918-0.27,5.832-0.517,8.742
							C312.067,304.785,313.317,304.781,313.385,303.984z"/>
					</g>
				</g>
			</g>
		</g>
	</g>
</g>
<g id="Tab_1">
	<g>
		<g>
			<path style="fill:#A0D2F4;" d="M336.306,203.165c-4.031,1.578-5.59,63.975,0.76,65.138c5.221,0.956,93.506,3.943,94.146-1.069
				c0.715-5.604,3.344-61.757-1.973-64.532C425.555,200.781,337.145,198.55,336.306,203.165z"/>
		</g>
		<g>
			<path style="fill:#421B36;" d="M431.616,210.456c-0.507-4.274-1.269-7.175-2.377-7.754c-3.684-1.922-92.094-4.153-92.933,0.462
				c-0.806,0.316-1.514,3.071-2.079,7.279C349.628,210.418,419.283,210.451,431.616,210.456z"/>
		</g>
		<g>
			<path style="fill:#8380FF;" d="M339.706,217.974c0,0-1.277,44.762,1.348,45.885c2.625,1.123,18.798,0.618,19.906,0.095
				c1.108-0.523,0.59-43.053-0.322-45.756C359.75,215.567,340.592,216.866,339.706,217.974z"/>
		</g>
		<g>
			<path style="fill:#8380FF;" d="M372.156,229.186c0,0-1.277,33.983,1.348,34.835c2.625,0.853,18.798,0.469,19.906,0.072
				c1.108-0.397,0.59-32.685-0.322-34.738C392.2,227.359,373.042,228.345,372.156,229.186z"/>
		</g>
		<g>
			<path style="fill:#8380FF;" d="M400.918,219.862c0,0-1.277,42.946,1.348,44.024c2.625,1.077,18.798,0.593,19.906,0.091
				c1.108-0.502,0.59-41.306-0.322-43.9C420.962,217.553,401.804,218.799,400.918,219.862z"/>
		</g>
		<g>
			<path style="fill:#8380FF;" d="M403.617,188.152c0,11.455-9.286,18.411-20.741,18.411s-20.741-6.957-20.741-18.411
				s9.286-20.741,20.741-20.741S403.617,176.697,403.617,188.152z"/>
			<path style="fill:#421B36;" d="M382.877,207.064c-12.506,0-21.24-7.777-21.24-18.912c0-11.712,9.528-21.241,21.24-21.241
				c11.713,0,21.241,9.528,21.241,21.241C404.118,199.287,395.383,207.064,382.877,207.064z M382.877,167.911
				c-11.16,0-20.24,9.08-20.24,20.241c0,10.546,8.323,17.912,20.24,17.912c11.918,0,20.241-7.366,20.241-17.912
				C403.118,176.992,394.038,167.911,382.877,167.911z"/>
		</g>
		<g>
			<g>
				<path style="fill:#FFFFFF;" d="M379.806,178.792c0,0,2.358,16.504,2.839,17.77c0.481,1.266,9.651-0.208,11.813-1.866
					s2.978-2.938,3.101-5.976c0.123-3.037-1.786-6.805-4.103-7.481c-2.317-0.676-6.226,0.197-6.226,0.197s-1.422-6.757-4.271-6.208
					C380.111,175.778,379.657,177.757,379.806,178.792z"/>
			</g>
			<g>
				<path style="fill:#FFFFFF;" d="M370.252,182.95c0,0,5.059-2.345,5.848-1.316c0.789,1.029,3.5,14.156,2.066,15.91
					c-0.497,0.608-2.866,0.956-3.84,1.158c-2.056,0.428-2.526-1.025-2.754-3.112C370.982,190.197,370.329,185.549,370.252,182.95z"
					/>
			</g>
		</g>
		<g>
			<g>
				<path style="fill:#A0D2F4;" d="M401.137,238.639c7.175-4.484,14.349-8.968,21.524-13.452c0.681-0.425,0.054-1.507-0.631-1.079
					c-7.175,4.484-14.349,8.968-21.524,13.452C399.826,237.985,400.452,239.067,401.137,238.639L401.137,238.639z"/>
			</g>
		</g>
		<g>
			<g>
				<path style="fill:#A0D2F4;" d="M400.959,248.547c7.175-4.484,14.349-8.968,21.524-13.452c0.681-0.425,0.054-1.507-0.631-1.079
					c-7.175,4.484-14.349,8.968-21.524,13.452C399.647,247.893,400.274,248.975,400.959,248.547L400.959,248.547z"/>
			</g>
		</g>
		<g>
			<g>
				<path style="fill:#A0D2F4;" d="M400.959,257.619c7.175-4.484,14.349-8.968,21.524-13.452c0.681-0.425,0.054-1.507-0.631-1.079
					c-7.175,4.484-14.349,8.968-21.524,13.452C399.647,256.965,400.274,258.047,400.959,257.619L400.959,257.619z"/>
			</g>
		</g>
		<g>
			<g>
				<path style="fill:#A0D2F4;" d="M403.377,264.485c6.841-4.115,13.682-8.229,20.524-12.344c0.689-0.414,0.061-1.495-0.631-1.079
					c-6.841,4.115-13.682,8.229-20.524,12.344C402.057,263.82,402.685,264.901,403.377,264.485L403.377,264.485z"/>
			</g>
		</g>
		<g>
			<g>
				<path style="fill:#A0D2F4;" d="M415.601,265.667c2.505-1.474,5.009-2.948,7.514-4.423c0.693-0.408,0.065-1.489-0.631-1.079
					c-2.505,1.474-5.009,2.948-7.514,4.423C414.277,264.995,414.906,266.076,415.601,265.667L415.601,265.667z"/>
			</g>
		</g>
		<g>
			<g>
				<path style="fill:#A0D2F4;" d="M400.959,229.334c5.11-3.316,10.219-6.633,15.329-9.949c0.672-0.436,0.047-1.519-0.631-1.079
					c-5.11,3.316-10.219,6.632-15.329,9.949C399.655,228.691,400.281,229.774,400.959,229.334L400.959,229.334z"/>
			</g>
		</g>
		<g>
			<g>
				<path style="fill:#A0D2F4;" d="M339.622,238.639c7.175-4.484,14.349-8.968,21.524-13.452c0.681-0.425,0.054-1.507-0.631-1.079
					c-7.175,4.484-14.349,8.968-21.524,13.452C338.31,237.985,338.937,239.067,339.622,238.639L339.622,238.639z"/>
			</g>
		</g>
		<g>
			<g>
				<path style="fill:#A0D2F4;" d="M339.444,248.547c7.175-4.484,14.349-8.968,21.524-13.452c0.681-0.425,0.054-1.507-0.631-1.079
					c-7.175,4.484-14.349,8.968-21.524,13.452C338.132,247.893,338.759,248.975,339.444,248.547L339.444,248.547z"/>
			</g>
		</g>
		<g>
			<g>
				<path style="fill:#A0D2F4;" d="M339.444,257.619c7.175-4.484,14.349-8.968,21.524-13.452c0.681-0.425,0.054-1.507-0.631-1.079
					c-7.175,4.484-14.349,8.968-21.524,13.452C338.132,256.965,338.759,258.047,339.444,257.619L339.444,257.619z"/>
			</g>
		</g>
		<g>
			<g>
				<path style="fill:#A0D2F4;" d="M341.862,264.485c6.841-4.115,13.682-8.229,20.524-12.344c0.689-0.414,0.061-1.495-0.631-1.079
					c-6.841,4.115-13.682,8.229-20.524,12.344C340.542,263.82,341.17,264.901,341.862,264.485L341.862,264.485z"/>
			</g>
		</g>
		<g>
			<g>
				<path style="fill:#A0D2F4;" d="M354.086,265.667c2.504-1.474,5.009-2.948,7.514-4.423c0.693-0.408,0.064-1.489-0.631-1.079
					c-2.505,1.474-5.009,2.948-7.514,4.423C352.762,264.995,353.391,266.076,354.086,265.667L354.086,265.667z"/>
			</g>
		</g>
		<g>
			<g>
				<path style="fill:#A0D2F4;" d="M339.444,229.334c5.763-3.99,11.525-7.98,17.288-11.971c0.657-0.455,0.033-1.539-0.631-1.079
					c-5.763,3.99-11.525,7.98-17.288,11.971C338.156,228.71,338.78,229.794,339.444,229.334L339.444,229.334z"/>
			</g>
		</g>
		<g>
			<path style="fill:#8380FF;" d="M449.029,210.667c0,11.455-9.286,18.412-20.741,18.412c-11.455,0-20.741-6.957-20.741-18.412
				s9.286-20.741,20.741-20.741C439.743,189.926,449.029,199.212,449.029,210.667z"/>
			<path style="fill:#421B36;" d="M428.289,229.578c-12.507,0-21.241-7.777-21.241-18.912c0-11.712,9.528-21.241,21.241-21.241
				c11.712,0,21.24,9.528,21.24,21.241C449.529,221.802,440.795,229.578,428.289,229.578z M428.289,190.426
				c-11.161,0-20.241,9.08-20.241,20.241c0,10.546,8.323,17.912,20.241,17.912c11.917,0,20.24-7.366,20.24-17.912
				C448.529,199.506,439.449,190.426,428.289,190.426z"/>
		</g>
		<g>
			<path style="fill:#FFFFFF;" d="M419.37,219.586c0,0-0.425-8.939,8.602-9.729c9.681-0.847,10.574,7.54,10.574,7.54
				C438.831,219.894,419.528,222.37,419.37,219.586z"/>
		</g>
		<g>
			<path style="fill:#FFFFFF;" d="M434.018,203.37c0.106,3.65-2.808,5.29-6.459,5.396c-3.65,0.106-6.655-1.361-6.761-5.012
				c-0.106-3.65,2.767-6.696,6.418-6.802C430.866,196.846,433.912,199.719,434.018,203.37z"/>
		</g>
		<g>
			<path style="fill:#8380FF;" d="M353.528,212.475c0,11.455-9.286,18.411-20.741,18.411s-20.741-6.957-20.741-18.411
				c0-11.455,9.286-20.741,20.741-20.741S353.528,201.02,353.528,212.475z"/>
			<path style="fill:#421B36;" d="M332.787,231.387c-12.506,0-21.24-7.777-21.24-18.912c0-11.712,9.528-21.241,21.24-21.241
				c11.713,0,21.241,9.528,21.241,21.241C354.028,223.61,345.294,231.387,332.787,231.387z M332.787,192.234
				c-11.16,0-20.24,9.08-20.24,20.241c0,10.546,8.323,17.912,20.24,17.912c11.918,0,20.241-7.366,20.241-17.912
				C353.028,201.314,343.948,192.234,332.787,192.234z"/>
		</g>
		<g>
			<path style="fill:#FFFFFF;" d="M344.299,206.115c-6.785-5.813-10.293,3.705-10.595,4.114c-0.239-0.449-1.966-9.999-9.518-5.225
				c-7.552,4.774,6.421,17.943,8.534,18.816C334.936,223.262,351.085,211.928,344.299,206.115z"/>
		</g>
		<g>
			<g>
				<path style="fill:#421B36;" d="M383.975,206.74c0,6.699,0,13.398,0,20.097c0,0.804,1.25,0.806,1.25,0c0-6.699,0-13.398,0-20.097
					C385.225,205.936,383.975,205.934,383.975,206.74L383.975,206.74z"/>
			</g>
		</g>
		<g>
			<path style="fill:#421B36;" d="M388.223,228.954c-0.178,2.018-2.252,2.601-4.27,2.423c-2.018-0.178-3.216-1.05-3.038-3.068
				c0.178-2.018,1.958-3.51,3.976-3.331C386.909,225.156,388.401,226.936,388.223,228.954z"/>
		</g>
	</g>
</g>
<g id="Character">
	<g>
		<path style="fill:#A0D2F4;" d="M170.053,266.114c1.389,0.452,14.806,24.067,29.498,19.188
			c14.692-4.879,18.306-35.891,18.306-35.891l-26.423-5.737l-2.794,6.907c0,0-28.558-28.168-33.673-29.893
			c-5.115-1.725-13.439,1.024-13.439,1.024L170.053,266.114z"/>
	</g>
	<g>
		<g>
			<g>
				<circle style="fill:#421B36;" cx="171.339" cy="432.657" r="9.144"/>
			</g>
			<g>
				<circle style="fill:#421B36;" cx="161.966" cy="463.466" r="9.144"/>
			</g>
			<g>
				<circle style="fill:#421B36;" cx="93.615" cy="465.294" r="9.144"/>
			</g>
			<g>
				<circle style="fill:#421B36;" cx="91.695" cy="425.099" r="9.144"/>
			</g>
			<g>
				<path style="fill:#421B36;" d="M118.276,338.26c0,0,0.313,90.43,4.145,96.234c3.832,5.804,10.888,0,10.888,0
					s-1.082-98.656-3.302-100.002C127.787,333.145,118.276,338.26,118.276,338.26z"/>
			</g>
			<g>
				<path style="fill:#421B36;" d="M79.677,459.21c0,0,14.012-22.076,39.84-29.927l8.609,8.584c0,0-21.229,6.509-35.91,26.696
					L79.677,459.21z"/>
			</g>
			<g>
				<path style="fill:#421B36;" d="M176.076,417.203c0,0-25.826-4.086-48.795,10.098l0.746,12.134c0,0,18.921-11.621,43.771-9.286
					L176.076,417.203z"/>
			</g>
			<g>
				<path style="fill:#421B36;" d="M173.683,459.21c0,0-14.013-22.076-39.84-29.927l-8.609,8.584c0,0,21.229,6.509,35.91,26.696
					L173.683,459.21z"/>
			</g>
			<g>
				<path style="fill:#421B36;" d="M135.871,430.903c0,0-19.837-17.035-46.832-17.019l-4.625,8.646c0,0,21.095,2.115,41.021,17.147
					L135.871,430.903z"/>
			</g>
			<g>
				<g>
					<path style="fill:#8380FF;" d="M120.036,430.717c2.123,1.956,4.728,3.553,7.671,3.759c2.639,0.185,5.317-0.881,6.871-3.058
						c0.468-0.656-0.615-1.281-1.079-0.631c-1.337,1.872-3.765,2.642-5.99,2.423c-2.519-0.249-4.769-1.7-6.589-3.376
						C120.329,429.289,119.443,430.171,120.036,430.717L120.036,430.717z"/>
				</g>
			</g>
			<g>
				<g>
					<path style="fill:#8380FF;" d="M121.974,430.272c-0.675-16.091-1.35-32.182-2.025-48.273c-0.034-0.802-1.284-0.806-1.25,0
						c0.675,16.091,1.35,32.182,2.025,48.273C120.757,431.074,122.007,431.078,121.974,430.272L121.974,430.272z"/>
				</g>
			</g>
			<g>
				<g>
					<path style="fill:#8380FF;" d="M106.56,435.864c3.965-2.48,8.354-4.165,12.957-4.986c0.791-0.141,0.456-1.346-0.332-1.205
						c-4.7,0.839-9.208,2.581-13.256,5.113C105.249,435.211,105.876,436.292,106.56,435.864L106.56,435.864z"/>
				</g>
			</g>
			<g>
				<g>
					<path style="fill:#8380FF;" d="M134.014,430.021c4.615,1.313,8.979,3.348,12.958,6.03c0.669,0.451,1.295-0.632,0.631-1.079
						c-4.063-2.739-8.544-4.816-13.257-6.156C133.571,428.595,133.24,429.8,134.014,430.021L134.014,430.021z"/>
				</g>
			</g>
			<g>
				<g>
					<path style="fill:#8380FF;" d="M158.951,430.52c4.31,0.494,8.62,0.988,12.93,1.482c0.279,0.032,0.523-0.218,0.603-0.459
						c1.485-4.487,2.969-8.974,4.454-13.461c0.253-0.765-0.954-1.094-1.205-0.332c-1.485,4.487-2.969,8.974-4.454,13.461
						c0.201-0.153,0.402-0.306,0.603-0.459c-4.31-0.494-8.62-0.988-12.93-1.482C158.154,429.178,158.16,430.429,158.951,430.52
						L158.951,430.52z"/>
				</g>
			</g>
			<g>
				<g>
					<path style="fill:#8380FF;" d="M152.115,454.568c1.536,1.734,3.071,3.468,4.607,5.202c0.768,0.867,1.536,1.734,2.303,2.601
						c0.57,0.644,1.179,1.607,2.044,1.885c0.91,0.293,1.865-0.276,2.688-0.604c1.076-0.429,2.152-0.858,3.229-1.287
						c2.216-0.883,4.431-1.766,6.647-2.649c0.738-0.294,0.416-1.504-0.332-1.205c-1.899,0.757-3.798,1.514-5.697,2.271
						c-1.013,0.404-2.026,0.807-3.039,1.211c-0.872,0.347-2.152,1.174-3.065,0.915c-0.923-0.263-1.638-1.474-2.268-2.186
						c-0.678-0.765-1.355-1.53-2.033-2.295c-1.4-1.581-2.8-3.162-4.2-4.743C152.464,453.081,151.583,453.967,152.115,454.568
						L152.115,454.568z"/>
				</g>
			</g>
			<g>
				<g>
					<path style="fill:#8380FF;" d="M79.701,460.281c2.442,0.728,4.883,1.456,7.325,2.183c1.221,0.364,2.442,0.728,3.663,1.092
						c0.992,0.296,2.092,0.756,3.15,0.599c0.863-0.128,1.492-0.677,2.034-1.327c0.792-0.95,1.523-1.959,2.281-2.936
						c1.607-2.071,3.214-4.142,4.821-6.213c0.487-0.628-0.391-1.519-0.884-0.884c-1.377,1.775-2.755,3.55-4.132,5.326
						c-0.735,0.947-1.469,1.894-2.204,2.84c-0.715,0.921-1.325,2.041-2.648,1.941c-1.055-0.079-2.155-0.572-3.164-0.873
						c-1.077-0.321-2.155-0.642-3.232-0.963c-2.226-0.664-4.453-1.327-6.679-1.991C79.26,458.845,78.93,460.052,79.701,460.281
						L79.701,460.281z"/>
				</g>
			</g>
		</g>
		<g>
			<path style="fill:#421B36;" d="M104.971,254.978c-2.039-0.412-42.812,4.429-54.822,9.285c-12.01,4.857-5.859,23.635-4.101,31.405
				c1.758,7.77,12.596,41.766,15.818,48.565c3.222,6.799,9.837,20.583,39.036,21.692c42.25,1.605,66.146-4.444,77.035-13.821
				c11.994-10.328-0.948-40.571-0.948-40.571l-43.743-4.384C133.246,307.15,115.496,257.107,104.971,254.978z"/>
		</g>
		<g>
			<path style="fill:#421B36;" d="M102.49,359.835c0,0-1.287,11.2,2.245,14.303c3.532,3.103,38.215,4.434,39.821-1.773
				c1.606-6.207,0-12.53,0-12.53H102.49z"/>
		</g>
		<g>
			<g>
				<path style="fill:#8380FF;" d="M91.018,365.586c20.667,2.719,41.926,2.58,62.312-2.075c5.64-1.288,11.192-2.938,16.611-4.964
					c0.747-0.279,0.423-1.488-0.332-1.205c-19.401,7.255-40.363,9.519-60.969,8.574c-5.894-0.27-11.772-0.81-17.622-1.58
					C90.222,364.232,90.23,365.483,91.018,365.586L91.018,365.586z"/>
			</g>
		</g>
		<g>
			<g>
				<path style="fill:#8380FF;" d="M115.33,376.698c6.651,0.91,13.356,0.865,19.994-0.138c0.793-0.12,0.456-1.325-0.332-1.205
					c-6.396,0.967-12.92,1.016-19.33,0.139C114.876,375.385,114.535,376.589,115.33,376.698L115.33,376.698z"/>
			</g>
		</g>
		<g>
			<g>
				<path style="fill:#8380FF;" d="M46.791,267.327c3.818,0.162,6.811,3.369,9.053,6.159c2.354,2.929,4.169,6.31,5.432,9.843
					c2.755,7.709,3.227,16.194,4.271,24.258c0.102,0.787,1.353,0.797,1.25,0c-0.578-4.466-1.108-8.942-1.757-13.399
					c-0.631-4.34-1.49-8.668-3.153-12.742c-1.452-3.558-3.426-6.897-5.956-9.797c-2.375-2.721-5.347-5.412-9.14-5.573
					C45.987,266.043,45.988,267.293,46.791,267.327L46.791,267.327z"/>
			</g>
		</g>
		<g>
			<g>
				<path style="fill:#8380FF;" d="M84.369,295.451c2.852-4.339,3.132-10.055,0.79-14.676c-0.364-0.718-1.442-0.086-1.079,0.631
					c2.147,4.236,1.812,9.456-0.79,13.414C82.847,295.494,83.929,296.121,84.369,295.451L84.369,295.451z"/>
			</g>
		</g>
		<g>
			<g>
				<path style="fill:#8380FF;" d="M83.434,295.585c-3.562-3.611-8.321-5.841-13.366-6.318c-0.8-0.076-0.795,1.175,0,1.25
					c4.71,0.445,9.163,2.588,12.482,5.952C83.116,297.043,84,296.159,83.434,295.585L83.434,295.585z"/>
			</g>
		</g>
		<g>
			<g>
				<path style="fill:#8380FF;" d="M83.996,297.246c4.072-1.158,8.484-0.576,12.117,1.597c0.692,0.414,1.321-0.666,0.631-1.079
					c-3.91-2.339-8.698-2.97-13.08-1.723C82.891,296.26,83.219,297.467,83.996,297.246L83.996,297.246z"/>
			</g>
		</g>
		<g>
			<g>
				<path style="fill:#8380FF;" d="M111.52,289.163c2.852-4.339,3.132-10.055,0.79-14.676c-0.364-0.718-1.443-0.086-1.079,0.631
					c2.147,4.236,1.812,9.456-0.79,13.414C109.997,289.207,111.079,289.833,111.52,289.163L111.52,289.163z"/>
			</g>
		</g>
		<g>
			<g>
				<path style="fill:#8380FF;" d="M110.585,289.297c-3.562-3.611-8.321-5.841-13.366-6.318c-0.8-0.076-0.795,1.175,0,1.25
					c4.71,0.445,9.163,2.588,12.482,5.952C110.267,290.755,111.151,289.871,110.585,289.297L110.585,289.297z"/>
			</g>
		</g>
		<g>
			<g>
				<path style="fill:#8380FF;" d="M111.146,290.958c4.072-1.158,8.484-0.576,12.117,1.597c0.692,0.414,1.321-0.666,0.631-1.079
					c-3.91-2.339-8.698-2.97-13.08-1.723C110.042,289.972,110.37,291.179,111.146,290.958L111.146,290.958z"/>
			</g>
		</g>
	</g>
	<g>
		<g>
			<g>
				<g>
					<g>
						<g>
							<g>
								<path style="fill:#A0D2F4;" d="M142.67,456.08c0.595,4.829,28.273,20.73,39.058,25.649
									c15.342,6.98,23.975,3.242,26.024,0.88c0.105-0.101,0.185-0.211,0.236-0.318c0.064-0.102,0.123-0.192,0.158-0.29
									c0.022-0.061,0.011-0.148-0.028-0.273c-0.004-0.029-0.012-0.046-0.027-0.079c-0.191-0.441-0.722-1.209-1.531-2.213
									c-0.041-0.042-0.077-0.096-0.125-0.155l-0.012-0.004c-3.08-3.823-9.699-10.87-15.034-16.732
									c-0.6-0.654-1.179-1.286-1.734-1.911c-1.393-1.542-2.641-2.949-3.644-4.146c-0.461-0.536-0.857-1.021-1.201-1.46
									c-0.315-0.401-0.582-0.744-0.791-1.053c-0.661-0.952-1.629-1.736-2.238-2.835c-0.244-0.445-0.484-0.903-0.703-1.382
									c-0.248-0.475-0.467-0.953-0.689-1.46c-1.339-3.072-2.325-6.517-2.83-9.834c-0.233-1.576-0.368-3.117-0.377-4.586
									c-0.006-2.34,1.798-6.283,4.204-10.483c4.6-8.034,11.389-16.985,11.888-17.224l-10.6-1.437l-16.841-2.293
									c0,0-2.169,8.281-4.603,16.096c-0.057,0.201-0.11,0.39-0.179,0.587c-1.435,4.585-2.94,8.937-4.146,11.264
									c-0.789,1.534-2.061,3.534-3.521,5.758c-2.935,4.485-6.669,9.864-8.857,14.114c-0.081,0.151-0.158,0.29-0.222,0.434
									C143.169,452.936,142.514,454.835,142.67,456.08z"/>
							</g>
						</g>
					</g>
					<g>
						<g>
							<g>
								<path style="fill:#8380FF;" d="M208.002,481.367c-0.374-0.63-0.781-1.157-1.534-2.104c0,0,0.084-0.1,0,0
									c-0.45,0.095-13.992,1.984-32.848-5.844c-19.174-7.964-29.577-23.836-29.577-23.836c-1.276,2.462-2.482,4.904-2.313,6.251
									c0.019,0.154,0.067,0.316,0.136,0.486c0.137,0.35,0.384,0.743,0.72,1.168c4.861,6.154,28.82,19.82,38.721,24.331
									c13.051,5.949,21.158,4.21,24.774,2.13C207.923,482.826,208.389,482.018,208.002,481.367z"/>
							</g>
						</g>
					</g>
				</g>
				<g>
					<g>
						<g>
							<path style="fill:#421B36;" d="M203.212,475.404l-18.935-21.337c-1.903-2.247-3.434-5.617-4.787-9.522c0,0,0.279-0.084,0,0
								c-0.267-7.483-5.739-10.217-10.064-7.549c-2.874,1.773-4.556,5.617-5.415,8.26c-0.287-0.087-0.576-0.167-0.857-0.271
								c-7.199-2.659-10.162-9.654-10.162-9.654c-3.473,5.148-6.998,10.536-8.948,14.251c0,0,11.256,17.023,30.18,24.887
								c18.925,7.863,32.526,4.921,32.526,4.921L203.212,475.404z"/>
						</g>
					</g>
				</g>
				<g>
					<g>
						<g>
							<g>
								<path style="fill:#FFFFFF;" d="M168.605,452.969c1.878-0.533,3.541-1.628,5.435-2.178c2.095-0.609,4.185-0.757,6.359-0.741
									c1.128,0.008,1.221-1.556,0.121-1.735c-3.862-0.626-10.041,0.611-12.106,4.359
									C168.342,452.803,168.428,453.019,168.605,452.969L168.605,452.969z"/>
							</g>
						</g>
					</g>
				</g>
				<g>
					<g>
						<g>
							<g>
								<path style="fill:#FFFFFF;" d="M175.622,459.482c3.152-0.998,5.944-2.85,9.401-2.34c1.132,0.167,1.453-1.582,0.403-1.944
									c-1.896-0.654-4.054-0.201-5.853,0.56c-1.602,0.678-3.528,1.764-4.185,3.452C175.335,459.345,175.47,459.53,175.622,459.482
									L175.622,459.482z"/>
							</g>
						</g>
					</g>
				</g>
				<g>
					<g>
						<g>
							<g>
								<path style="fill:#FFFFFF;" d="M181.935,465.931c1.464-0.382,2.64-1.5,4.017-2.115c1.589-0.709,3.143-0.682,4.814-0.95
									c1.301-0.209,0.985-1.913-0.129-2.132c-2.958-0.581-8.315,1.395-9.315,4.485
									C181.203,465.588,181.522,466.039,181.935,465.931L181.935,465.931z"/>
							</g>
						</g>
					</g>
				</g>
				<g>
					<g>
						<g>
							<g>
								<path style="fill:#FFFFFF;" d="M157.864,454.076c2.415,2.717,5.364,4.757,8.591,6.405c0.772,0.395,1.475-0.96,0.702-1.371
									c-3.084-1.641-5.945-3.573-8.809-5.566C158.014,453.311,157.587,453.764,157.864,454.076L157.864,454.076z"/>
							</g>
						</g>
					</g>
				</g>
			</g>
		</g>
		<g>
			<g>
				<g>
					<g>
						<g>
							<g>
								<path style="fill:#A0D2F4;" d="M293.177,417.936c4.294,2.288,33.213-11.226,43.435-17.226
									c14.529-8.546,16.431-17.758,15.675-20.793c-0.023-0.144-0.067-0.273-0.124-0.376c-0.047-0.111-0.086-0.211-0.147-0.296
									c-0.038-0.053-0.115-0.094-0.24-0.133c-0.026-0.014-0.044-0.017-0.08-0.023c-0.47-0.097-1.404-0.103-2.69-0.019
									c-0.058,0.009-0.123,0.008-0.199,0.014l-0.011,0.008c-4.898,0.324-14.469,1.691-22.333,2.689
									c-0.88,0.115-1.73,0.226-2.56,0.321c-2.063,0.254-3.931,0.466-5.487,0.599c-0.704,0.07-1.328,0.115-1.885,0.144
									c-0.51,0.027-0.943,0.048-1.316,0.042c-1.159-0.006-2.357,0.336-3.606,0.202c-0.505-0.056-1.017-0.123-1.535-0.219
									c-0.531-0.07-1.048-0.165-1.591-0.275c-3.283-0.669-6.669-1.842-9.675-3.335c-1.424-0.715-2.763-1.49-3.97-2.327
									c-1.918-1.34-4.109-5.081-6.164-9.464c-3.932-8.381-7.356-19.081-7.264-19.627l-7.267,7.849l-11.554,12.465
									c0,0,5.531,6.534,10.528,13.017c0.132,0.162,0.256,0.314,0.378,0.484c2.928,3.809,5.625,7.541,6.836,9.867
									c0.802,1.527,1.708,3.717,2.689,6.191c1.984,4.979,4.241,11.126,6.462,15.359c0.077,0.153,0.147,0.296,0.227,0.431
									C290.891,415.721,292.069,417.349,293.177,417.936z"/>
							</g>
						</g>
					</g>
					<g>
						<g>
							<g>
								<path style="fill:#8380FF;" d="M351.415,378.999c-0.731-0.056-1.396-0.026-2.603,0.046c0,0-0.034-0.126,0,0
									c-0.181,0.423-6.417,12.592-23.659,23.525c-17.536,11.116-36.504,10.508-36.504,10.508c1.282,2.46,2.587,4.85,3.786,5.486
									c0.137,0.073,0.297,0.126,0.476,0.168c0.366,0.089,0.829,0.112,1.37,0.082c7.83-0.442,32.783-12.197,42.164-17.707
									c12.369-7.262,15.603-14.896,15.979-19.051C352.564,379.903,352.17,379.056,351.415,378.999z"/>
							</g>
						</g>
					</g>
				</g>
				<g>
					<g>
						<g>
							<path style="fill:#421B36;" d="M343.783,379.492l-28.343,3.235c-2.933,0.267-6.57-0.417-10.544-1.554c0,0,0.092-0.277,0,0
								c-6.278-4.082-11.659-1.175-11.961,3.899c-0.201,3.371,1.979,6.956,3.648,9.178c-0.236,0.185-0.468,0.375-0.714,0.546
								c-6.313,4.364-13.741,2.769-13.741,2.769c2.218,5.8,4.601,11.782,6.521,15.512c0,0,20.4,0.571,37.71-10.399
								c17.31-10.969,22.718-23.791,22.718-23.791L343.783,379.492z"/>
						</g>
					</g>
				</g>
				<g>
					<g>
						<g>
							<g>
								<path style="fill:#FFFFFF;" d="M305.535,394.923c0.643-1.843,0.703-3.834,1.34-5.699c0.705-2.065,1.786-3.86,3.047-5.63
									c0.655-0.919-0.572-1.894-1.35-1.096c-2.732,2.801-5.27,8.569-3.389,12.413
									C305.248,395.043,305.474,395.096,305.535,394.923L305.535,394.923z"/>
							</g>
						</g>
					</g>
				</g>
				<g>
					<g>
						<g>
							<g>
								<path style="fill:#FFFFFF;" d="M314.897,392.923c0.995-3.152,1.083-6.502,3.487-9.038c0.787-0.83-0.46-2.098-1.36-1.447
									c-1.625,1.176-2.494,3.203-2.905,5.112c-0.366,1.701-0.583,3.901,0.42,5.409
									C314.62,393.079,314.849,393.074,314.897,392.923L314.897,392.923z"/>
							</g>
						</g>
					</g>
				</g>
				<g>
					<g>
						<g>
							<g>
								<path style="fill:#FFFFFF;" d="M323.803,391.463c0.529-1.417,0.29-3.022,0.578-4.503c0.332-1.708,1.248-2.964,1.989-4.485
									c0.577-1.185-1-1.905-1.819-1.119c-2.175,2.087-3.637,7.607-1.682,10.2C323.102,391.864,323.654,391.862,323.803,391.463
									L323.803,391.463z"/>
							</g>
						</g>
					</g>
				</g>
				<g>
					<g>
						<g>
							<g>
								<path style="fill:#FFFFFF;" d="M300.268,404.349c3.611-0.415,6.976-1.656,10.179-3.35c0.767-0.405,0.062-1.759-0.719-1.362
									c-3.115,1.581-6.34,2.812-9.617,4.01C299.729,403.787,299.854,404.397,300.268,404.349L300.268,404.349z"/>
							</g>
						</g>
					</g>
				</g>
			</g>
		</g>
		<g>
			<path style="fill:#8380FF;" d="M187.059,319.417c-0.586,1.619-46.01,110.059-41.789,113.52
				c14.348,11.767,46.818,15.366,48.575,11.157c1.758-4.209,27.122-86.948,27.103-98.261c-0.018-11.313-7.225-26.53-12.41-29.443
				C203.354,313.476,187.059,319.417,187.059,319.417z"/>
		</g>
		<g>
			<path style="fill:#8380FF;" d="M108.443,284.014c0,0-11.424,19.75-9.96,37.557c1.465,17.807,20.212,22.664,31.93,22.987
				c11.717,0.324,77.474-25.188,77.474-25.188s46.393,77.729,55.767,74.168c9.374-3.561,42.781-25.206,38.68-31.357
				c-4.101-6.151-76.713-74.994-83.744-78.879c-7.03-3.885-57.711,10.102-57.711,10.102l-2.929-10.102L108.443,284.014z"/>
		</g>
		<g>
			<g>
				<path style="fill:#421B36;" d="M120.945,303.573c18.328-5.057,36.854-9.38,55.528-12.957c0.789-0.151,0.455-1.356-0.332-1.205
					c-18.674,3.577-37.2,7.9-55.528,12.957C119.838,302.582,120.167,303.788,120.945,303.573L120.945,303.573z"/>
			</g>
		</g>
		<g>
			<g>
				<path style="fill:#421B36;" d="M203.92,315.42c7.802,12.268,16.04,24.267,24.045,36.403c1.618,2.453,3.244,4.903,4.821,7.383
					c0.43,0.677,1.513,0.051,1.079-0.631c-7.802-12.268-16.04-24.267-24.045-36.403c-1.618-2.453-3.244-4.903-4.821-7.383
					C204.569,314.112,203.487,314.738,203.92,315.42L203.92,315.42z"/>
			</g>
		</g>
		<g>
			<g>
				<path style="fill:#421B36;" d="M150.993,341.459c14.928-5.711,30.064-10.868,44.917-16.777c3.89-1.547,7.758-3.148,11.583-4.851
					c0.734-0.326,0.098-1.404-0.631-1.079c-14.485,6.448-29.512,11.642-44.388,17.096c-3.946,1.447-7.888,2.904-11.813,4.406
					C149.917,340.538,150.24,341.747,150.993,341.459L150.993,341.459z"/>
			</g>
		</g>
		<g>
			<path style="fill:#421B36;" d="M141.206,288.283c0.087,1.775,0.492,3.534,1.189,5.168c0.046,0.108,0.099,0.222,0.2,0.281
				c0.111,0.065,0.249,0.048,0.376,0.028c2.476-0.379,4.947-0.79,7.412-1.231c-0.477-2.19-0.266-4.571-1.293-6.563
				c-0.049-0.095-0.107-0.195-0.204-0.239c-0.086-0.039-0.186-0.028-0.279-0.015c-2.24,0.3-4.48,0.599-6.719,0.899"/>
		</g>
		<g>
			<path style="fill:#421B36;" d="M160.107,289.739c0,0-3.949,1.319-5.666,1.661c-0.391-1.992-1.029-3.935-1.893-5.772
				c0,0,5.694-1.314,5.694-1.313C158.243,284.315,160.355,288.371,160.107,289.739z"/>
		</g>
		<g>
			<g>
				<path style="fill:#A0D2F4;" d="M130.435,338.757c24.141-5.651,47.724-13.188,71.675-19.571c1.064-0.284,0.6-1.973-0.455-1.65
					c-23.675,7.255-47.867,12.804-71.644,19.684C129.024,337.506,129.436,338.991,130.435,338.757L130.435,338.757z"/>
			</g>
		</g>
		<g>
			<g>
				<path style="fill:#A0D2F4;" d="M208.256,315.011c8.267,13.948,17.897,27.097,27.31,40.281
					c9.15,12.815,18.045,26.675,28.727,38.307c0.69,0.751,1.761-0.351,1.11-1.11c-3.798-4.432-7.019-9.472-10.422-14.204
					c-6.007-8.352-11.997-16.717-18.033-25.049c-6-8.281-11.953-16.598-18.018-24.833c-3.328-4.519-7.242-8.89-10.107-13.723
					C208.607,314.316,208.04,314.646,208.256,315.011L208.256,315.011z"/>
			</g>
		</g>
		<g>
			<g>
				<path style="fill:#A0D2F4;" d="M157.419,437.928c9.049-21.548,16.118-43.644,23.738-65.704
					c2.954-8.554,5.86-17.124,8.844-25.668c2.346-6.716,5.591-13.666,6.956-20.666c0.282-1.448-1.818-2.591-2.549-1.075
					c-2.886,5.989-4.625,12.726-6.816,18.993c-3.133,8.961-6.346,17.911-9.189,26.969c-3.083,9.825-5.758,19.767-9.054,29.526
					c-4.219,12.49-8.94,24.804-13.285,37.251C155.758,438.428,157.079,438.738,157.419,437.928L157.419,437.928z"/>
			</g>
		</g>
	</g>
	<g>
		<g>
			<g>
				<path style="fill:#FFBFBF;" d="M198.951,232.477c-0.275-0.737-1.725-6.049,1.751-10.636c3.475-4.587,4.609-5.664,5.373-9.208
					c0.845-3.924,1.301-5.125,3.743-4.346c4.165,1.328,2.414,9.588,1.162,11.534c0,0,13.536-7.974,17.106-8.882
					c3.57-0.908,4.84,0.303,5.264,1.573c0.424,1.271-0.968,3.449-0.968,3.449s3.933-1.392,5.446-0.121
					c1.513,1.271,0.787,3.086,0.787,3.086s3.166-0.984,4.175,1.634c1.36,3.529-2.959,5.202-2.959,5.202s3.074,2.729,0.351,4.786
					c-2.723,2.057-24.957,5.34-24.92,5.528c0.246,1.218-1.377,12.473-1.377,12.473s-14.26-1.791-14.26-1.852
					s1.865-10.327,1.865-10.327C201.282,236.384,199.496,233.936,198.951,232.477z"/>
			</g>
			<g>
				<g>
					<path style="fill:#421B36;" d="M204.828,232.793c0.905-1.936,2.298-3.596,4.111-4.743c1.155-0.731,2.388-1.069,3.737-1.238
						c2.66-0.333,6.548-0.363,8.431,1.904c0.515,0.619,1.395-0.269,0.884-0.884c-2.144-2.581-6.469-2.639-9.505-2.246
						c-1.556,0.202-2.964,0.598-4.29,1.457c-1.934,1.253-3.473,3.033-4.448,5.118C203.41,232.886,204.487,233.522,204.828,232.793
						L204.828,232.793z"/>
				</g>
			</g>
			<g>
				<g>
					<path style="fill:#421B36;" d="M221.991,228.394c5.777-0.834,11.601-1.236,17.4-1.874c0.791-0.087,0.8-1.338,0-1.25
						c-5.911,0.65-11.844,1.069-17.732,1.918C220.865,227.303,221.203,228.508,221.991,228.394L221.991,228.394z"/>
				</g>
			</g>
			<g>
				<g>
					<path style="fill:#421B36;" d="M219.054,225.645c6.699-1.934,13.51-3.627,19.964-6.306c0.732-0.304,0.411-1.514-0.332-1.205
						c-6.454,2.679-13.264,4.373-19.964,6.306C217.951,224.662,218.279,225.869,219.054,225.645L219.054,225.645z"/>
				</g>
			</g>
			<g>
				<g>
					<path style="fill:#421B36;" d="M216.104,223.412c5.473-2.745,11.398-4.455,16.872-7.2c0.719-0.361,0.087-1.439-0.631-1.079
						c-5.474,2.745-11.398,4.455-16.872,7.2C214.754,222.693,215.386,223.772,216.104,223.412L216.104,223.412z"/>
				</g>
			</g>
			<g>
				<g>
					<path style="fill:#421B36;" d="M213.733,222.38c1.266,0.713,2.418,1.683,3.552,2.582c1.321,1.047,2.652,2.11,3.854,3.294
						c0.573,0.565,1.458-0.318,0.884-0.884c-1.225-1.208-2.584-2.29-3.931-3.356c-1.191-0.942-2.4-1.967-3.728-2.716
						C213.662,220.906,213.031,221.985,213.733,222.38L213.733,222.38z"/>
				</g>
			</g>
			<g>
				<g>
					<path style="fill:#421B36;" d="M205.356,223.96c1.856-1.803,4.345-2.748,6.597-3.941c0.711-0.377,0.08-1.456-0.631-1.079
						c-2.356,1.248-4.907,2.249-6.85,4.137C203.894,223.638,204.778,224.522,205.356,223.96L205.356,223.96z"/>
				</g>
			</g>
		</g>
		<g>
			<g>
				<path style="fill:#421B36;" d="M188.195,271.281c-0.351-6.74,0.636-13.455,2.909-19.81c0.271-0.759-0.936-1.085-1.205-0.332
					c-2.307,6.449-3.311,13.303-2.954,20.142C186.987,272.081,188.237,272.086,188.195,271.281L188.195,271.281z"/>
			</g>
		</g>
		<g>
			<path style="fill:#A0D2F4;" d="M153.935,222.459v15.011c0,0,10.678,4.278,11.066,14.733c0.366,9.854-8.048,12.787-8.048,12.787
				s4.641,16.122,2.698,18.624c-1.943,2.502-43.944,6.949-45.956,0c-2.012-6.949-14.587-44.476-12.575-48.923
				c2.012-4.448,6.539-18.346,6.539-18.346S153.935,217.734,153.935,222.459z"/>
		</g>
		<g>
			<path style="fill:#421B36;" d="M165.748,226.267c-5.02-0.104-9.313,3.751-10.04,9.014c-1.342,9.712-4.61,23.288-5.45,30.062
				c-0.226,1.824,0.898,5.529,4.334,5.353c8.452-0.434,31.386,0.182,43.664,0.132c4.726-0.019,8.832-3.224,9.999-7.803
				c2.45-9.614,6.316-24.838,6.453-25.708c0.201-1.277,2.216-9.952-7.028-10.165C201.127,227.001,178.415,226.529,165.748,226.267z"
				/>
		</g>
		<g>
			<g>
				<path style="fill:#FFBFBF;" d="M138.263,251.582c0,0,9.141-15.282,21.953-15.021c12.812,0.261,10.339,6.863,8.156,7.106
					c-2.183,0.243-5.318-1.056-7.853-1.25c-2.535-0.195-4.057,1.318-4.057,1.318s6.605,0.393,9.395,4.843
					c2.79,4.45-1.242,6.905-4.086,5.878c-2.844-1.027-6.095-2.992-9.657-1.693c0,0,11.155,2.756,9.272,6.865
					c-1.883,4.11-5.49-2.186-8.301-0.573c-2.811,1.613-3.116,9.357-9.043,8.053l0,0l-10.576,20.038
					c-1.741-0.2-20.511-6.998-13.258-11.294C120.52,275.667,133.826,257.993,138.263,251.582z"/>
			</g>
			<g>
				<g>
					<path style="fill:#421B36;" d="M166.878,252.727c-1.633-2.34-4.337-3.786-6.908-4.867c-3.179-1.338-6.523-1.725-9.879-0.81
						c-0.775,0.211-0.446,1.417,0.332,1.205c3.085-0.841,6.144-0.479,9.066,0.749c2.292,0.963,4.85,2.264,6.31,4.355
						C166.256,254.013,167.34,253.389,166.878,252.727L166.878,252.727z"/>
				</g>
			</g>
			<g>
				<g>
					<path style="fill:#421B36;" d="M169.926,241.162c-0.118,0.01-0.232,0.007-0.349,0.001c-0.144-0.007,0.097,0.026-0.033-0.006
						c-0.066-0.016-0.132-0.029-0.198-0.048c-0.049-0.014-0.098-0.03-0.147-0.048c-0.019-0.007-0.172-0.077-0.045-0.016
						c-0.114-0.054-0.226-0.112-0.334-0.178c-0.048-0.029-0.094-0.059-0.14-0.09c-0.018-0.012-0.165-0.119-0.12-0.084
						c0.044,0.033-0.099-0.082-0.117-0.097c-0.045-0.038-0.089-0.077-0.132-0.117c-0.201-0.185-0.386-0.387-0.557-0.6
						c-0.02-0.024-0.039-0.048-0.058-0.073c0.035,0.044,0.03,0.037-0.015-0.022c-0.036-0.051-0.073-0.101-0.109-0.153
						c-0.083-0.12-0.163-0.243-0.238-0.368c-0.139-0.23-0.265-0.467-0.376-0.712c-0.008-0.018-0.075-0.171-0.034-0.073
						c-0.031-0.073-0.059-0.147-0.087-0.222c-0.04-0.109-0.077-0.219-0.111-0.33c-0.037-0.124-0.07-0.249-0.098-0.376
						c-0.011-0.052-0.022-0.104-0.031-0.157c-0.006-0.034-0.012-0.069-0.017-0.103c0.01,0.081,0.011,0.086,0.003,0.015
						c-0.039-0.335-0.259-0.625-0.625-0.625c-0.308,0-0.664,0.288-0.625,0.625c0.148,1.277,0.737,2.462,1.538,3.456
						c0.726,0.901,1.833,1.752,3.055,1.65c0.336-0.028,0.625-0.267,0.625-0.625C170.551,241.471,170.264,241.134,169.926,241.162
						L169.926,241.162z"/>
				</g>
			</g>
		</g>
		<g>
			<path style="fill:#A0D2F4;" d="M107.658,216.344c0,0-16.348,0.278-18.863,17.79c-2.515,17.512,11.569,58.93,16.348,64.212
				s15.09,16.678,27.917,2.78c0,0,8.551-9.451,8.3-13.065c-0.252-3.614-13.078-19.18-15.593-18.346
				c-2.515,0.834-4.527,3.614-4.527,3.614l-9.054-25.574C112.185,247.755,115.706,216.9,107.658,216.344z"/>
		</g>
		<g>
			<g>
				<path style="fill:#A0D2F4;" d="M88.796,234.134c-2.515,17.512,11.569,58.93,16.348,64.212s15.09,16.678,27.917,2.78
					c0,0,8.551-9.451,8.3-13.065c-0.252-3.614-13.078-19.18-15.593-18.346c-2.515,0.834-4.527,3.614-4.527,3.614l-9.054-25.574
					l0.308-3.293"/>
			</g>
			<g>
				<g>
					<path style="fill:#421B36;" d="M88.193,233.968c-0.695,4.986-0.192,10.094,0.521,15.049c0.89,6.185,2.279,12.297,3.902,18.328
						c1.567,5.824,3.366,11.591,5.435,17.256c1.471,4.029,3.008,8.131,5.104,11.885c1.791,3.208,4.762,5.967,7.657,8.163
						c4.535,3.441,10.073,4.899,15.441,2.461c4.765-2.164,8.249-6.437,11.345-10.521c1.518-2.002,3.089-4.133,3.984-6.502
						c0.619-1.639,0.353-2.879-0.418-4.396c-2.219-4.358-5.612-8.343-8.939-11.889c-1.391-1.483-2.873-3.055-4.612-4.137
						c-1.846-1.149-3.37-0.139-4.918,1.195c-0.739,0.637-1.416,1.363-1.994,2.151c0.381,0.05,0.762,0.099,1.142,0.149
						c-2.881-8.137-5.761-16.273-8.642-24.41c-0.129-0.364-0.35-0.778-0.411-1.161c0.049,0.307,0.047-0.161,0.061-0.265
						c0.048-0.362,0.068-0.731,0.103-1.095c0.055-0.59,0.11-1.18,0.166-1.77c0.075-0.801-1.176-0.795-1.25,0
						c-0.126,1.347-0.529,2.774-0.07,4.069c0.629,1.778,1.259,3.556,1.888,5.334c1.85,5.226,3.7,10.452,5.55,15.677
						c0.466,1.317,0.933,2.635,1.399,3.952c0.189,0.534,0.82,0.588,1.142,0.149c0.575-0.783,1.297-1.502,2.051-2.11
						c0.664-0.535,1.704-1.431,2.536-1.126c1.508,0.553,2.855,2.114,3.951,3.218c3.378,3.404,6.539,7.241,9.015,11.356
						c0.701,1.165,1.638,2.527,1.31,3.944c-0.509,2.196-2.087,4.253-3.387,6.042c-2.764,3.805-5.971,7.847-10.071,10.253
						c-2.598,1.525-5.6,2.284-8.597,1.75c-2.508-0.447-4.798-1.662-6.83-3.163c-2.756-2.035-5.661-4.695-7.383-7.703
						c-1.934-3.378-3.348-7.079-4.705-10.716c-1.916-5.135-3.596-10.361-5.091-15.634c-1.611-5.686-3.012-11.44-4.045-17.261
						c-0.883-4.977-1.566-10.074-1.386-15.141c0.036-1.02,0.11-2.041,0.251-3.052C89.508,233.514,88.304,233.174,88.193,233.968
						L88.193,233.968z"/>
				</g>
			</g>
		</g>
		<g>
			<g>
				<path style="fill:#421B36;" d="M94.822,224.857c7.282,1.223,13.718,6.271,16.517,13.128c0.3,0.735,1.51,0.413,1.205-0.332
					c-2.958-7.248-9.647-12.701-17.39-14.001C94.367,223.52,94.029,224.724,94.822,224.857L94.822,224.857z"/>
			</g>
		</g>
		<g>
			<path style="fill:#FFFFFF;" d="M180.654,245.644c-2.523,2.523-3.047,6.09-1.17,7.967c1.877,1.877,5.444,1.353,7.967-1.17
				c2.523-2.523,3.047-6.09,1.17-7.967C186.744,242.597,183.177,243.121,180.654,245.644z"/>
		</g>
		<g>
			<g>
				<path style="fill:#421B36;" d="M151.316,244.277c2.431-0.532,4.958-0.623,7.42-0.248c0.333,0.051,0.672-0.084,0.769-0.437
					c0.081-0.296-0.101-0.718-0.437-0.769c-2.696-0.411-5.419-0.335-8.085,0.248C150.198,243.243,150.53,244.448,151.316,244.277
					L151.316,244.277z"/>
			</g>
		</g>
		<g>
			<g>
				<path style="fill:#421B36;" d="M147.268,255.284c1.026-0.938,2.159-1.859,3.548-2.167c1.539-0.341,3.164,0.122,4.699,0.277
					c0.8,0.08,0.794-1.17,0-1.25c-1.72-0.173-3.454-0.632-5.173-0.199c-1.537,0.387-2.811,1.407-3.958,2.455
					C145.789,254.944,146.675,255.826,147.268,255.284L147.268,255.284z"/>
			</g>
		</g>
	</g>
	<g>
		<g>
			<path style="fill:#FFBFBF;" d="M145.626,219.181c-2.312,4.113-5.272,8.758-8.469,12.228c-0.254,0.276-0.525,0.559-0.879,0.682
				c-0.759,0.265-1.537-0.284-2.161-0.791c-7.747-6.295-16.563-11.271-25.956-14.651c0,0,8.964-0.273,17.347-0.306
				C133.891,216.31,145.626,219.181,145.626,219.181z"/>
		</g>
		<g>
			<g>
				<path style="fill:#421B36;" d="M123.506,167.008c-1.02-1.57,6.08-2.437,7.081-4.018s1.012-7.823,5.282-11.774
					c2.914-2.696,5.464-4.129,9.396-3.572c3.931,0.558,7.707,3.445,8.339,7.365c2.698-0.862,5.665-1.498,8.319-0.508
					c2.654,0.989,4.637,4.198,3.377,6.735c3.253-0.565,6.768,0.799,8.79,3.41c2.021,2.612,2.461,6.357,1.099,9.365
					c1.242,0.423,2.507,0.858,3.555,1.646c1.049,0.788,1.865,2.002,1.838,3.314c-0.02,0.949-0.47,1.857-0.437,2.806
					c0.058,1.7,1.568,2.92,2.611,4.263c3.147,4.053,2.021,10.341-1.546,14.028c-3.567,3.687-8.929,5.127-14.059,5.211
					c-1.195,5.466-7.224,9.368-12.7,8.219c-1.387,3.328-4.742,5.744-8.337,6.006c-3.596,0.261-7.265-1.644-9.12-4.736
					c-1.855-3.092-1.81-7.227,0.112-10.277"/>
			</g>
			<g>
				<g>
					<g>
						<g>
							<g>
								<g>
									<path style="fill:#8380FF;" d="M114.246,172.031c-1.35-0.775-3.173-0.129-4.15,1.083c-0.977,1.212-1.28,2.828-1.394,4.381
										c-0.145,1.973-0.037,3.964,0.321,5.909c0.209,1.136,0.529,2.307,1.309,3.16c0.78,0.853,2.139,1.273,3.126,0.672"/>
								</g>
							</g>
						</g>
						<g>
							<g>
								<g>
									<path style="fill:#FFBFBF;" d="M119.136,171.868c7.281-12.58,25.783-12.807,33.406-0.43
										c2.411,3.914,3.816,9.281,4.363,16.575c1.525,20.35-18.591,21.904-18.591,21.904l-0.721,9.241l-16.738,4.629l-0.077-21.311
										c0,0-3.82-14.888-3.47-24.587C117.384,175.731,118.069,173.711,119.136,171.868z"/>
								</g>
							</g>
							<g>
								<g>
									<path style="fill:#421B36;" d="M148.633,178.471c0.086,0.743-0.388,1.408-1.057,1.485c-0.67,0.077-1.282-0.462-1.368-1.205
										c-0.086-0.743,0.387-1.408,1.057-1.485C147.935,177.188,148.547,177.728,148.633,178.471z"/>
								</g>
							</g>
							<g>
								<g>
									<path style="fill:#421B36;" d="M135.492,179.961c0.086,0.743-0.387,1.408-1.057,1.486c-0.67,0.077-1.282-0.462-1.368-1.205
										c-0.086-0.743,0.388-1.408,1.057-1.486C134.794,178.678,135.406,179.218,135.492,179.961z"/>
								</g>
							</g>
							<g>
								<g>
									<g>
										<path style="fill:#421B36;" d="M126.402,173.166c2.463-1.887,5.214-1.832,8.119-1.772c0.665,0.014,1.082-0.91,0.354-1.213
											c-3.134-1.303-6.609,0.317-8.892,2.427C125.661,172.906,126.038,173.445,126.402,173.166L126.402,173.166z"/>
									</g>
								</g>
							</g>
							<g>
								<g>
									<g>
										<path style="fill:#421B36;" d="M131.643,208.156c3.551,2.247,7.823,2.919,11.943,2.141c0.7-0.132,0.596-1.194-0.128-1.112
											c-4.064,0.462-7.855,0.013-11.775-1.12C131.634,208.05,131.601,208.129,131.643,208.156L131.643,208.156z"/>
									</g>
								</g>
							</g>
							<g>
								<g>
									<path style="fill:#421B36;" d="M105.052,179.591c-2.166,8.935,1.327,17.511,8.534,23.22l9.698-14.018
										c0,0,4.882-5.6-0.773-14.077c-1.064,2.085,0.638,2.139,3.477,0.101c4.496-3.227,7.32-8.293,8.015-13.782l0.139-1.096
										c-5.757-1.298-12.328,0.619-17.243,3.886c-2.772,1.842-5.599,4.255-7.437,7.03
										C109.463,170.854,105.983,175.751,105.052,179.591z"/>
								</g>
							</g>
							<g>
								<path style="fill:#421B36;" d="M119.142,187.217c2.196-3.577,1.579-8.635-1.414-11.579l15.795-15.356
									c-3.941-3.588-12.982-2.007-17.834,0.562c-4.852,2.569-7.337,4.895-8.335,10.293c-3.734-0.2-8.293,1.292-10.093,4.569
									c-1.799,3.278-1.546,7.576,0.627,10.619c-4.064,0.784-7.164,4.286-8.675,8.14c-1.063,2.71-1.459,5.876-0.145,8.473
									c1.314,2.598,4.755,4.204,7.304,2.798c-1.991,4.186-0.699,9.673,2.95,12.532c3.65,2.858,9.286,2.798,12.874-0.138
									c1.928,4.892,7.46,8.081,12.66,7.297c5.2-0.784,9.545-5.463,9.944-10.706c0.399-5.243-3.189-10.526-8.21-12.088
									c2.922-0.031,5.289-2.948,5.295-5.871c0.006-2.923-1.917-5.603-4.395-7.153
									C125.015,188.059,122.053,187.479,119.142,187.217z"/>
							</g>
							<g style="opacity:0.3;">
								<g>
									<path style="fill:#421B36;" d="M133.554,184.809c0.127,1.102-1.494,2.194-3.622,2.44c-2.128,0.246-3.955-0.448-4.083-1.55
										c-0.127-1.102,1.494-2.194,3.622-2.44C131.599,183.013,133.427,183.707,133.554,184.809z"/>
								</g>
							</g>
							<g style="opacity:0.3;">
								<g>
									<path style="fill:#421B36;" d="M154.779,182.357c0.127,1.102-1.495,2.194-3.622,2.44c-2.128,0.246-3.955-0.448-4.083-1.55
										c-0.127-1.102,1.494-2.194,3.622-2.44C152.824,180.561,154.652,181.255,154.779,182.357z"/>
								</g>
							</g>
							<g>
								<g>
									<path style="fill:#FFBFBF;" d="M113.257,187.466c-1.204-0.436-2.613-0.015-3.546,0.862
										c-0.933,0.877-1.432,2.141-1.594,3.41c-0.27,2.111,0.401,4.397,2.009,5.79c1.608,1.394,4.181,1.682,5.897,0.424
										L113.257,187.466z"/>
								</g>
							</g>
							<g>
								<g>
									<g>
										<path style="fill:#421B36;" d="M111.405,193.57c0.353-0.318,1.184-0.578,1.647-0.613c0.656-0.051,1.118,0.236,1.614,0.621
											c0.512,0.398,1.245-0.277,0.826-0.804c-0.573-0.72-1.555-1.079-2.463-0.954c-0.429,0.059-0.898,0.24-1.229,0.525
											c-0.376,0.325-0.398,0.662-0.558,1.096C111.208,193.533,111.318,193.648,111.405,193.57L111.405,193.57z"/>
									</g>
								</g>
							</g>
							<g>
								<g>
									<g>
										<path style="fill:#421B36;" d="M147.843,169.682c-2.552-2.184-6.356-1.347-7.673,1.709
											c-1.869,4.337,0.862,10.614,3.678,13.946c0.559,0.661,1.523-0.076,1.067-0.801c-1.718-2.737-3.407-5.56-3.855-8.831
											c-0.585-4.271,2.349-7.251,6.509-5.568C147.852,170.251,148.075,169.881,147.843,169.682L147.843,169.682z"/>
									</g>
								</g>
							</g>
						</g>
						<g>
							<g>
								<g>
									<path style="fill:#421B36;" d="M137.063,188.632c-0.108,1.383,1.301,2.615,2.427,3.186c1.382,0.701,3.045,0.89,4.415,0.063
										c0.357-0.216,0.281-0.81-0.138-0.902c-1.181-0.26-2.408-0.375-3.491-0.965c-0.908-0.494-1.543-1.409-2.47-1.83
										C137.442,188.018,137.094,188.241,137.063,188.632L137.063,188.632z"/>
								</g>
							</g>
						</g>
					</g>
				</g>
				<g>
					<g>
						<path style="fill:#421B36;" d="M137.999,221.432c0.596-3.807,0.973-7.766,0.87-11.622c-0.021-0.803-1.271-0.806-1.25,0
							c0.1,3.742-0.247,7.593-0.826,11.289C136.671,221.886,137.875,222.225,137.999,221.432L137.999,221.432z"/>
					</g>
				</g>
			</g>
			<g>
				<path style="fill:#421B36;" d="M132.966,157.835c0.31-2.494,0.339-4.895,1.667-7.13c1.319-2.22,3.281-3.499,5.475-4.747
					c0.415-0.236,0.163-0.912-0.311-0.786c-4.947,1.32-9.136,7.701-6.976,12.7"/>
			</g>
			<g>
				<path style="fill:#421B36;" d="M133.11,159.27c-2.912-4.255-2.718-9.772,0.312-13.937c0.075-0.103-0.089-0.226-0.175-0.136l0,0
					c-3.957,4.095-4.333,9.918-1.131,14.625"/>
			</g>
			<g>
				<g>
					<path style="fill:#421B36;" d="M104.905,171.358c-4.293-0.726-8.681,0.72-10.921,4.698c-1.169,2.076-1.493,4.551-1.049,6.877
						c0.204,1.069,0.678,1.838,0.961,2.862c0.622,2.248,1.199,0.631-0.364,1.791c-2.156,1.6-4.867,1.649-6.884,3.885
						c-1.519,1.684-2.48,3.765-2.582,6.04c-0.203,4.556,3.344,8.034,7.87,7.566c0.763-0.079,0.799-1.244,0-1.219
						c-6.955,0.217-7.972-7.818-3.802-11.99c2.169-2.17,5.078-3.029,7.982-3.607c0.463-0.092,0.498-0.651,0.252-0.956
						c-5.643-6.993-0.157-16.316,8.497-15.663C105.028,171.655,105.068,171.385,104.905,171.358L104.905,171.358z"/>
				</g>
			</g>
			<g>
				<g>
					<path style="fill:#421B36;" d="M96.515,203.758c-3.098,3.227-3.912,8.193-1.52,12.097c2.35,3.834,7.451,5.682,11.621,3.982
						c0.563-0.229,0.357-1.015-0.252-0.913c-3.774,0.63-8.024-0.318-10.205-3.75c-2.163-3.402-1.618-7.861,0.834-10.939
						C97.256,203.904,96.823,203.437,96.515,203.758L96.515,203.758z"/>
				</g>
			</g>
			<g>
				<g>
					<path style="fill:#421B36;" d="M151.624,155.926c3.05-0.766,5.633-2.646,8.664-3.439c3.209-0.84,7.738-0.536,8.252,4.362
						c0.248,2.369-2.223,5.355-3.558,6.989c-0.351,0.43,0.101,1.188,0.64,0.83c2.917-1.935,6.438-2.803,9.71-0.859
						c5.438,3.229,4.455,10.625-1.318,12.777c-0.336,0.125-0.209,0.621,0.15,0.542c5.088-1.122,7.553-6.682,4.797-11.216
						c-3.055-5.024-9.347-5.055-13.872-2.157c0.213,0.277,0.427,0.553,0.64,0.83c2.845-3.306,6.502-9.152,1.649-12.576
						c-5.035-3.552-11.541,1.323-15.838,3.719C151.433,155.789,151.507,155.955,151.624,155.926L151.624,155.926z"/>
				</g>
			</g>
			<g>
				<g>
					<path style="fill:#421B36;" d="M131.328,159.508c-7.035-2.54-15.522-3.917-22.246,0.289c-5.007,3.132-7.535,9.021-5.53,14.67
						c0.339,0.955,1.851,0.564,1.537-0.424c-2.201-6.915,2.425-12.807,8.976-14.749c5.679-1.683,11.461-0.296,17.084,0.864
						C131.577,160.248,131.736,159.656,131.328,159.508L131.328,159.508z"/>
				</g>
			</g>
		</g>
	</g>
	<g>
		<g>
			<path style="fill:#421B36;" d="M63.729,309.445c13.741-1.754,27.531-2.413,41.309-1.973c2.69,0.086,5.431,0.229,7.967,1.745
				c0,0,7.071,3.565,10.349,9.325c2.545,4.472,4.919,9.589,5.883,15.681c0.964,6.092,1.025,12.491,0.808,18.786"/>
		</g>
		<g>
			<g>
				<path style="fill:#8380FF;" d="M63.729,310.07c7.343-0.93,14.721-1.564,22.117-1.876c3.77-0.159,7.544-0.235,11.318-0.229
					c3.46,0.005,6.982-0.058,10.429,0.272c4.067,0.389,7.729,2.774,10.76,5.4c4.464,3.866,7.169,9.559,8.937,15.11
					c2.469,7.753,2.398,16.211,2.13,24.261c-0.027,0.805,1.223,0.804,1.25,0c0.248-7.45,0.312-15.224-1.568-22.492
					c-0.788-3.048-1.956-5.989-3.351-8.809c-1.305-2.639-2.721-5.169-4.772-7.305c-2.49-2.593-5.678-5.001-9.024-6.408
					c-3.218-1.352-6.941-1.17-10.362-1.234c-3.937-0.073-7.875-0.057-11.811,0.049c-8.712,0.234-17.407,0.916-26.053,2.011
					C62.942,308.92,62.932,310.171,63.729,310.07L63.729,310.07z"/>
			</g>
		</g>
	</g>
</g>
</svg>
